<svg width="1920" height="1080" viewBox="0 0 1920 1080" fill="none" xmlns="http://www.w3.org/2000/svg">
<rect width="1920" height="1080" fill="#2C2734"/>
<path d="M868 217.6C867.013 217.6 866.213 217.333 865.6 216.8C864.987 216.24 864.68 215.507 864.68 214.6C864.68 213.693 864.987 212.973 865.6 212.44C866.213 211.88 867.013 211.6 868 211.6C869.013 211.6 869.813 211.88 870.4 212.44C871.013 212.973 871.32 213.693 871.32 214.6C871.32 215.507 871.013 216.24 870.4 216.8C869.813 217.333 869.013 217.6 868 217.6ZM868 234.4C867.013 234.4 866.213 234.133 865.6 233.6C864.987 233.04 864.68 232.307 864.68 231.4C864.68 230.493 864.987 229.773 865.6 229.24C866.213 228.68 867.013 228.4 868 228.4C869.013 228.4 869.813 228.68 870.4 229.24C871.013 229.773 871.32 230.493 871.32 231.4C871.32 232.307 871.013 233.04 870.4 233.6C869.813 234.133 869.013 234.4 868 234.4ZM891.984 234.4C890.198 234.4 888.638 234.053 887.304 233.36C885.998 232.64 884.984 231.64 884.264 230.36C883.544 229.053 883.184 227.533 883.184 225.8V213C883.184 211.24 883.544 209.72 884.264 208.44C884.984 207.16 885.998 206.173 887.304 205.48C888.638 204.76 890.198 204.4 891.984 204.4C893.798 204.4 895.358 204.76 896.664 205.48C897.971 206.173 898.984 207.16 899.704 208.44C900.424 209.72 900.784 211.24 900.784 213V225.8C900.784 227.533 900.424 229.053 899.704 230.36C898.984 231.64 897.958 232.64 896.624 233.36C895.318 234.053 893.771 234.4 891.984 234.4ZM891.984 231.32C893.584 231.32 894.864 230.813 895.824 229.8C896.811 228.76 897.304 227.427 897.304 225.8V213C897.304 211.373 896.811 210.053 895.824 209.04C894.864 208 893.584 207.48 891.984 207.48C890.384 207.48 889.091 208 888.104 209.04C887.144 210.053 886.664 211.373 886.664 213V225.8C886.664 227.427 887.144 228.76 888.104 229.8C889.091 230.813 890.384 231.32 891.984 231.32ZM891.984 221.76C891.264 221.76 890.678 221.533 890.224 221.08C889.798 220.627 889.584 220.027 889.584 219.28C889.584 218.56 889.798 217.987 890.224 217.56C890.678 217.107 891.264 216.88 891.984 216.88C892.704 216.88 893.278 217.107 893.704 217.56C894.158 217.987 894.384 218.56 894.384 219.28C894.384 220.027 894.158 220.627 893.704 221.08C893.278 221.533 892.704 221.76 891.984 221.76Z" fill="#B2E2FA"/>
<path d="M931.153 220.4L938.313 204.8H941.673L948.753 220.4H945.513L941.033 210.08C940.82 209.547 940.62 209.04 940.433 208.56C940.273 208.053 940.153 207.667 940.073 207.4C939.966 207.667 939.82 208.053 939.633 208.56C939.446 209.04 939.233 209.547 938.993 210.08L934.393 220.4H931.153ZM966.938 234C965.658 234 964.538 233.747 963.578 233.24C962.618 232.733 961.871 232.013 961.338 231.08C960.804 230.147 960.538 229.053 960.538 227.8V208.08H953.138V204.8H964.138V227.8C964.138 228.707 964.391 229.427 964.898 229.96C965.404 230.467 966.084 230.72 966.938 230.72H973.938V234H966.938ZM1410.84 220.4L1418 204.8H1421.36L1428.44 220.4H1425.2L1420.72 210.08C1420.51 209.547 1420.31 209.04 1420.12 208.56C1419.96 208.053 1419.84 207.667 1419.76 207.4C1419.65 207.667 1419.51 208.053 1419.32 208.56C1419.13 209.04 1418.92 209.547 1418.68 210.08L1414.08 220.4H1410.84ZM1435.31 234V212H1438.91V216.2H1439.67L1438.91 217.04C1438.91 215.307 1439.43 213.973 1440.47 213.04C1441.51 212.08 1442.95 211.6 1444.79 211.6C1447 211.6 1448.76 212.28 1450.07 213.64C1451.37 215 1452.03 216.853 1452.03 219.2V234H1448.43V219.6C1448.43 218.027 1448 216.827 1447.15 216C1446.32 215.147 1445.19 214.72 1443.75 214.72C1442.25 214.72 1441.07 215.173 1440.19 216.08C1439.33 216.987 1438.91 218.293 1438.91 220V234H1435.31Z" fill="#FAEEB2"/>
<path d="M1014.51 216.8L1014.03 208.4V204.8H1017.91V208.4L1017.47 216.8H1014.51ZM1006.39 216.8L1005.91 208.4V204.8H1009.79V208.4L1009.35 216.8H1006.39ZM1027.61 234V204.8H1031.21V217.28H1040.57V204.8H1044.17V234H1040.57V220.56H1031.21V234H1027.61ZM1059.88 234.4C1058.14 234.4 1056.62 234.053 1055.32 233.36C1054.04 232.667 1053.04 231.693 1052.32 230.44C1051.62 229.16 1051.28 227.68 1051.28 226V220C1051.28 218.293 1051.62 216.813 1052.32 215.56C1053.04 214.307 1054.04 213.333 1055.32 212.64C1056.62 211.947 1058.14 211.6 1059.88 211.6C1061.61 211.6 1063.12 211.947 1064.4 212.64C1065.7 213.333 1066.7 214.307 1067.4 215.56C1068.12 216.813 1068.48 218.293 1068.48 220V223.88H1054.8V226C1054.8 227.733 1055.24 229.067 1056.12 230C1057 230.907 1058.25 231.36 1059.88 231.36C1061.26 231.36 1062.38 231.12 1063.24 230.64C1064.09 230.133 1064.61 229.387 1064.8 228.4H1068.4C1068.16 230.24 1067.25 231.707 1065.68 232.8C1064.13 233.867 1062.2 234.4 1059.88 234.4ZM1064.96 221.48V220C1064.96 218.267 1064.52 216.933 1063.64 216C1062.78 215.067 1061.53 214.6 1059.88 214.6C1058.25 214.6 1057 215.067 1056.12 216C1055.24 216.933 1054.8 218.267 1054.8 220V221.16H1065.24L1064.96 221.48ZM1086.86 234C1085.58 234 1084.46 233.747 1083.5 233.24C1082.54 232.733 1081.79 232.013 1081.26 231.08C1080.73 230.147 1080.46 229.053 1080.46 227.8V208.08H1073.06V204.8H1084.06V227.8C1084.06 228.707 1084.31 229.427 1084.82 229.96C1085.33 230.467 1086.01 230.72 1086.86 230.72H1093.86V234H1086.86ZM1110.84 234C1109.56 234 1108.44 233.747 1107.48 233.24C1106.52 232.733 1105.78 232.013 1105.24 231.08C1104.71 230.147 1104.44 229.053 1104.44 227.8V208.08H1097.04V204.8H1108.04V227.8C1108.04 228.707 1108.3 229.427 1108.8 229.96C1109.31 230.467 1109.99 230.72 1110.84 230.72H1117.84V234H1110.84ZM1131.83 234.32C1130.07 234.32 1128.55 233.987 1127.27 233.32C1125.99 232.653 1124.99 231.693 1124.27 230.44C1123.57 229.16 1123.23 227.653 1123.23 225.92V220.08C1123.23 218.32 1123.57 216.813 1124.27 215.56C1124.99 214.307 1125.99 213.347 1127.27 212.68C1128.55 212.013 1130.07 211.68 1131.83 211.68C1133.59 211.68 1135.11 212.013 1136.39 212.68C1137.67 213.347 1138.65 214.307 1139.35 215.56C1140.07 216.813 1140.43 218.307 1140.43 220.04V225.92C1140.43 227.653 1140.07 229.16 1139.35 230.44C1138.65 231.693 1137.67 232.653 1136.39 233.32C1135.11 233.987 1133.59 234.32 1131.83 234.32ZM1131.83 231.12C1133.4 231.12 1134.63 230.68 1135.51 229.8C1136.39 228.92 1136.83 227.627 1136.83 225.92V220.08C1136.83 218.373 1136.39 217.08 1135.51 216.2C1134.63 215.32 1133.4 214.88 1131.83 214.88C1130.28 214.88 1129.05 215.32 1128.15 216.2C1127.27 217.08 1126.83 218.373 1126.83 220.08V225.92C1126.83 227.627 1127.27 228.92 1128.15 229.8C1129.05 230.68 1130.28 231.12 1131.83 231.12ZM1172.16 234L1168.8 204.8H1172.24L1174.44 226.4C1174.49 226.987 1174.54 227.6 1174.6 228.24C1174.65 228.853 1174.69 229.44 1174.72 230C1174.77 230.56 1174.8 231.027 1174.8 231.4C1174.85 231.027 1174.89 230.56 1174.92 230C1174.97 229.44 1175.02 228.853 1175.08 228.24C1175.16 227.6 1175.24 226.987 1175.32 226.4L1178.04 204.8H1181.76L1184.24 226.4C1184.32 226.987 1184.38 227.6 1184.44 228.24C1184.52 228.853 1184.58 229.44 1184.64 230C1184.72 230.56 1184.77 231.027 1184.8 231.4C1184.82 231.027 1184.85 230.56 1184.88 230C1184.93 229.44 1184.98 228.853 1185.04 228.24C1185.12 227.6 1185.18 226.987 1185.24 226.4L1187.52 204.8H1190.8L1187.36 234H1182.84L1180.36 212C1180.3 211.387 1180.24 210.787 1180.16 210.2C1180.1 209.613 1180.05 209.067 1180 208.56C1179.94 208.053 1179.9 207.64 1179.88 207.32C1179.85 207.64 1179.8 208.053 1179.72 208.56C1179.66 209.067 1179.61 209.613 1179.56 210.2C1179.5 210.787 1179.44 211.387 1179.36 212L1176.68 234H1172.16ZM1203.78 234.32C1202.02 234.32 1200.5 233.987 1199.22 233.32C1197.94 232.653 1196.94 231.693 1196.22 230.44C1195.53 229.16 1195.18 227.653 1195.18 225.92V220.08C1195.18 218.32 1195.53 216.813 1196.22 215.56C1196.94 214.307 1197.94 213.347 1199.22 212.68C1200.5 212.013 1202.02 211.68 1203.78 211.68C1205.54 211.68 1207.06 212.013 1208.34 212.68C1209.62 213.347 1210.61 214.307 1211.3 215.56C1212.02 216.813 1212.38 218.307 1212.38 220.04V225.92C1212.38 227.653 1212.02 229.16 1211.3 230.44C1210.61 231.693 1209.62 232.653 1208.34 233.32C1207.06 233.987 1205.54 234.32 1203.78 234.32ZM1203.78 231.12C1205.35 231.12 1206.58 230.68 1207.46 229.8C1208.34 228.92 1208.78 227.627 1208.78 225.92V220.08C1208.78 218.373 1208.34 217.08 1207.46 216.2C1206.58 215.32 1205.35 214.88 1203.78 214.88C1202.23 214.88 1201.01 215.32 1200.1 216.2C1199.22 217.08 1198.78 218.373 1198.78 220.08V225.92C1198.78 227.627 1199.22 228.92 1200.1 229.8C1201.01 230.68 1202.23 231.12 1203.78 231.12ZM1220.21 234V212H1223.73V216.2H1224.57L1223.41 218.8C1223.41 216.427 1223.91 214.64 1224.93 213.44C1225.97 212.213 1227.5 211.6 1229.53 211.6C1231.85 211.6 1233.69 212.333 1235.05 213.8C1236.43 215.24 1237.13 217.2 1237.13 219.68V221H1233.53V220C1233.53 218.267 1233.1 216.947 1232.25 216.04C1231.42 215.107 1230.23 214.64 1228.69 214.64C1227.17 214.64 1225.97 215.107 1225.09 216.04C1224.23 216.973 1223.81 218.293 1223.81 220V234H1220.21ZM1254.75 234C1253.47 234 1252.35 233.747 1251.39 233.24C1250.43 232.733 1249.68 232.013 1249.15 231.08C1248.62 230.147 1248.35 229.053 1248.35 227.8V208.08H1240.95V204.8H1251.95V227.8C1251.95 228.707 1252.2 229.427 1252.71 229.96C1253.22 230.467 1253.9 230.72 1254.75 230.72H1261.75V234H1254.75ZM1274.45 234.4C1272.27 234.4 1270.49 233.667 1269.13 232.2C1267.8 230.733 1267.13 228.747 1267.13 226.24V219.8C1267.13 217.267 1267.8 215.267 1269.13 213.8C1270.47 212.333 1272.24 211.6 1274.45 211.6C1276.27 211.6 1277.72 212.093 1278.81 213.08C1279.91 214.067 1280.45 215.387 1280.45 217.04L1279.73 216.2H1280.53L1280.45 211.2V204.8H1284.05V234H1280.45V229.8H1279.73L1280.45 228.96C1280.45 230.64 1279.91 231.973 1278.81 232.96C1277.72 233.92 1276.27 234.4 1274.45 234.4ZM1275.65 231.28C1277.15 231.28 1278.32 230.813 1279.17 229.88C1280.03 228.947 1280.45 227.653 1280.45 226V220C1280.45 218.347 1280.03 217.053 1279.17 216.12C1278.32 215.187 1277.15 214.72 1275.65 214.72C1274.13 214.72 1272.93 215.173 1272.05 216.08C1271.17 216.987 1270.73 218.293 1270.73 220V226C1270.73 227.707 1271.17 229.013 1272.05 229.92C1272.93 230.827 1274.13 231.28 1275.65 231.28ZM1298.44 225.4L1297.6 209.6V204.8H1301.84V209.6L1301 225.4H1298.44ZM1299.12 234.2C1298.43 234.2 1297.85 233.973 1297.4 233.52C1296.95 233.067 1296.72 232.493 1296.72 231.8C1296.72 231.107 1296.95 230.533 1297.4 230.08C1297.85 229.627 1298.43 229.4 1299.12 229.4H1300.32C1301.09 229.4 1301.68 229.627 1302.08 230.08C1302.51 230.507 1302.72 231.067 1302.72 231.76C1302.72 232.453 1302.49 233.04 1302.04 233.52C1301.59 233.973 1301.01 234.2 1300.32 234.2H1299.12ZM1374.27 216.8L1373.79 208.4V204.8H1377.67V208.4L1377.23 216.8H1374.27ZM1366.15 216.8L1365.67 208.4V204.8H1369.55V208.4L1369.11 216.8H1366.15Z" fill="#B2FACA"/>
<path d="M1328.9 238.4L1314.7 200.8H1318.5L1332.7 238.4H1328.9ZM1339.37 234V212H1342.97V216.2H1343.73L1342.97 217.04C1342.97 215.307 1343.49 213.973 1344.53 213.04C1345.57 212.08 1347.01 211.6 1348.85 211.6C1351.06 211.6 1352.82 212.28 1354.13 213.64C1355.43 215 1356.09 216.853 1356.09 219.2V234H1352.49V219.6C1352.49 218.027 1352.06 216.827 1351.21 216C1350.38 215.147 1349.25 214.72 1347.81 214.72C1346.31 214.72 1345.13 215.173 1344.25 216.08C1343.39 216.987 1342.97 218.293 1342.97 220V234H1339.37Z" fill="#FACAB2"/>
<path d="M1488.39 234V217.48H1481.99V214.2H1488.39V210.4C1488.39 208.667 1488.94 207.307 1490.03 206.32C1491.13 205.307 1492.63 204.8 1494.55 204.8H1500.99V208.08H1494.55C1493.73 208.08 1493.09 208.28 1492.63 208.68C1492.21 209.053 1491.99 209.627 1491.99 210.4V214.2H1500.99V217.48H1491.99V234H1488.39Z" fill="#F1EBFF"/>
<rect x="810" y="129" width="740" height="182" stroke="white" stroke-opacity="0.4" stroke-width="2"/>
<rect x="923" y="187" width="543" height="68" rx="5" stroke="#B2FACA" stroke-width="4"/>
<path d="M588.984 470L590.76 460.4H586.68V457.28H591.336L593.064 447.68H588.36V444.56H593.64L595.416 434.96H598.776L597 444.56H604.68L606.456 434.96H609.816L608.04 444.56H612.12V447.68H607.464L605.736 457.28H610.44V460.4H605.16L603.384 470H600.024L601.8 460.4H594.12L592.344 470H588.984ZM594.696 457.28H602.376L604.104 447.68H596.424L594.696 457.28ZM617.861 470V466.064H627.221V447.536H619.061V443.6H631.541V466.064H640.421V470H617.861ZM628.901 438.848C627.845 438.848 627.013 438.576 626.405 438.032C625.797 437.488 625.493 436.752 625.493 435.824C625.493 434.864 625.797 434.112 626.405 433.568C627.013 432.992 627.845 432.704 628.901 432.704C629.957 432.704 630.789 432.992 631.397 433.568C632.005 434.112 632.309 434.864 632.309 435.824C632.309 436.752 632.005 437.488 631.397 438.032C630.789 438.576 629.957 438.848 628.901 438.848ZM646.979 470V443.6H651.299V448.64H652.211L651.299 449.648C651.299 447.568 651.923 445.968 653.171 444.848C654.419 443.696 656.147 443.12 658.355 443.12C661.011 443.12 663.123 443.936 664.691 445.568C666.259 447.2 667.043 449.424 667.043 452.24V470H662.723V452.72C662.723 450.832 662.211 449.392 661.187 448.4C660.195 447.376 658.835 446.864 657.107 446.864C655.315 446.864 653.891 447.408 652.835 448.496C651.811 449.584 651.299 451.152 651.299 453.2V470H646.979ZM685.936 470.48C683.824 470.48 681.968 470.08 680.368 469.28C678.8 468.48 677.584 467.328 676.72 465.824C675.856 464.288 675.424 462.48 675.424 460.4V453.2C675.424 451.088 675.856 449.28 676.72 447.776C677.584 446.272 678.8 445.12 680.368 444.32C681.968 443.52 683.824 443.12 685.936 443.12C688.976 443.12 691.424 443.936 693.28 445.568C695.136 447.2 696.112 449.424 696.208 452.24H691.888C691.792 450.544 691.216 449.248 690.16 448.352C689.136 447.424 687.728 446.96 685.936 446.96C684.048 446.96 682.544 447.504 681.424 448.592C680.304 449.648 679.744 451.168 679.744 453.152V460.4C679.744 462.384 680.304 463.92 681.424 465.008C682.544 466.096 684.048 466.64 685.936 466.64C687.728 466.64 689.136 466.176 690.16 465.248C691.216 464.32 691.792 463.024 691.888 461.36H696.208C696.112 464.176 695.136 466.4 693.28 468.032C691.424 469.664 688.976 470.48 685.936 470.48ZM718.125 470C716.589 470 715.245 469.696 714.093 469.088C712.941 468.48 712.045 467.616 711.405 466.496C710.765 465.376 710.445 464.064 710.445 462.56V438.896H701.565V434.96H714.765V462.56C714.765 463.648 715.069 464.512 715.677 465.152C716.285 465.76 717.101 466.064 718.125 466.064H726.525V470H718.125ZM743.258 470.48C740.218 470.48 737.786 469.584 735.962 467.792C734.138 465.968 733.226 463.504 733.226 460.4V443.6H737.546V460.4C737.546 462.384 738.058 463.936 739.082 465.056C740.106 466.144 741.498 466.688 743.258 466.688C745.05 466.688 746.458 466.144 747.482 465.056C748.538 463.936 749.066 462.384 749.066 460.4V443.6H753.386V460.4C753.386 463.504 752.458 465.968 750.602 467.792C748.746 469.584 746.298 470.48 743.258 470.48ZM770.552 470.48C767.928 470.48 765.8 469.6 764.168 467.84C762.568 466.08 761.768 463.696 761.768 460.688V452.96C761.768 449.92 762.568 447.52 764.168 445.76C765.768 444 767.896 443.12 770.552 443.12C772.728 443.12 774.472 443.712 775.784 444.896C777.096 446.08 777.752 447.664 777.752 449.648L776.888 448.64H777.848L777.752 442.64V434.96H782.072V470H777.752V464.96H776.888L777.752 463.952C777.752 465.968 777.096 467.568 775.784 468.752C774.472 469.904 772.728 470.48 770.552 470.48ZM771.992 466.736C773.784 466.736 775.192 466.176 776.216 465.056C777.24 463.936 777.752 462.384 777.752 460.4V453.2C777.752 451.216 777.24 449.664 776.216 448.544C775.192 447.424 773.784 446.864 771.992 446.864C770.168 446.864 768.728 447.408 767.672 448.496C766.616 449.584 766.088 451.152 766.088 453.2V460.4C766.088 462.448 766.616 464.016 767.672 465.104C768.728 466.192 770.168 466.736 771.992 466.736ZM800.869 470.48C798.789 470.48 796.965 470.064 795.397 469.232C793.861 468.4 792.661 467.232 791.797 465.728C790.965 464.192 790.549 462.416 790.549 460.4V453.2C790.549 451.152 790.965 449.376 791.797 447.872C792.661 446.368 793.861 445.2 795.397 444.368C796.965 443.536 798.789 443.12 800.869 443.12C802.949 443.12 804.757 443.536 806.293 444.368C807.861 445.2 809.061 446.368 809.893 447.872C810.757 449.376 811.189 451.152 811.189 453.2V457.856H794.773V460.4C794.773 462.48 795.301 464.08 796.357 465.2C797.413 466.288 798.917 466.832 800.869 466.832C802.533 466.832 803.877 466.544 804.901 465.968C805.925 465.36 806.549 464.464 806.773 463.28H811.093C810.805 465.488 809.717 467.248 807.829 468.56C805.973 469.84 803.653 470.48 800.869 470.48ZM806.965 454.976V453.2C806.965 451.12 806.437 449.52 805.381 448.4C804.357 447.28 802.853 446.72 800.869 446.72C798.917 446.72 797.413 447.28 796.357 448.4C795.301 449.52 794.773 451.12 794.773 453.2V454.592H807.301L806.965 454.976ZM589.08 622V618.064H598.44V599.536H590.28V595.6H602.76V618.064H611.64V622H589.08ZM600.12 590.848C599.064 590.848 598.232 590.576 597.624 590.032C597.016 589.488 596.712 588.752 596.712 587.824C596.712 586.864 597.016 586.112 597.624 585.568C598.232 584.992 599.064 584.704 600.12 584.704C601.176 584.704 602.008 584.992 602.616 585.568C603.224 586.112 603.528 586.864 603.528 587.824C603.528 588.752 603.224 589.488 602.616 590.032C602.008 590.576 601.176 590.848 600.12 590.848ZM618.197 622V595.6H622.517V600.64H623.429L622.517 601.648C622.517 599.568 623.141 597.968 624.389 596.848C625.637 595.696 627.365 595.12 629.573 595.12C632.229 595.12 634.341 595.936 635.909 597.568C637.477 599.2 638.261 601.424 638.261 604.24V622H633.941V604.72C633.941 602.832 633.429 601.392 632.405 600.4C631.413 599.376 630.053 598.864 628.325 598.864C626.533 598.864 625.109 599.408 624.053 600.496C623.029 601.584 622.517 603.152 622.517 605.2V622H618.197ZM659.843 622C657.571 622 655.795 621.392 654.515 620.176C653.267 618.96 652.643 617.248 652.643 615.04V599.536H645.203V595.6H652.643V588.16H656.963V595.6H667.523V599.536H656.963V615.04C656.963 617.056 657.923 618.064 659.843 618.064H667.043V622H659.843ZM855.503 622L846.671 595.6H851.087L856.943 613.36C857.295 614.416 857.615 615.44 857.903 616.432C858.191 617.392 858.399 618.144 858.527 618.688C858.687 618.144 858.911 617.392 859.199 616.432C859.487 615.44 859.791 614.416 860.111 613.36L865.823 595.6H870.191L861.359 622H855.503ZM887.213 622.384C885.101 622.384 883.277 621.984 881.741 621.184C880.205 620.384 879.005 619.232 878.141 617.728C877.309 616.192 876.893 614.384 876.893 612.304V605.296C876.893 603.184 877.309 601.376 878.141 599.872C879.005 598.368 880.205 597.216 881.741 596.416C883.277 595.616 885.101 595.216 887.213 595.216C889.325 595.216 891.149 595.616 892.685 596.416C894.221 597.216 895.405 598.368 896.237 599.872C897.101 601.376 897.533 603.168 897.533 605.248V612.304C897.533 614.384 897.101 616.192 896.237 617.728C895.405 619.232 894.221 620.384 892.685 621.184C891.149 621.984 889.325 622.384 887.213 622.384ZM887.213 618.544C889.101 618.544 890.573 618.016 891.629 616.96C892.685 615.904 893.213 614.352 893.213 612.304V605.296C893.213 603.248 892.685 601.696 891.629 600.64C890.573 599.584 889.101 599.056 887.213 599.056C885.357 599.056 883.885 599.584 882.797 600.64C881.741 601.696 881.213 603.248 881.213 605.296V612.304C881.213 614.352 881.741 615.904 882.797 616.96C883.885 618.016 885.357 618.544 887.213 618.544ZM905.674 622V618.064H915.034V599.536H906.874V595.6H919.354V618.064H928.234V622H905.674ZM916.714 590.848C915.658 590.848 914.826 590.576 914.218 590.032C913.61 589.488 913.306 588.752 913.306 587.824C913.306 586.864 913.61 586.112 914.218 585.568C914.826 584.992 915.658 584.704 916.714 584.704C917.77 584.704 918.602 584.992 919.21 585.568C919.818 586.112 920.122 586.864 920.122 587.824C920.122 588.752 919.818 589.488 919.21 590.032C918.602 590.576 917.77 590.848 916.714 590.848ZM943.239 622.48C940.615 622.48 938.487 621.6 936.855 619.84C935.255 618.08 934.455 615.696 934.455 612.688V604.96C934.455 601.92 935.255 599.52 936.855 597.76C938.455 596 940.583 595.12 943.239 595.12C945.415 595.12 947.159 595.712 948.471 596.896C949.783 598.08 950.439 599.664 950.439 601.648L949.575 600.64H950.535L950.439 594.64V586.96H954.759V622H950.439V616.96H949.575L950.439 615.952C950.439 617.968 949.783 619.568 948.471 620.752C947.159 621.904 945.415 622.48 943.239 622.48ZM944.679 618.736C946.471 618.736 947.879 618.176 948.903 617.056C949.927 615.936 950.439 614.384 950.439 612.4V605.2C950.439 603.216 949.927 601.664 948.903 600.544C947.879 599.424 946.471 598.864 944.679 598.864C942.855 598.864 941.415 599.408 940.359 600.496C939.303 601.584 938.775 603.152 938.775 605.2V612.4C938.775 614.448 939.303 616.016 940.359 617.104C941.415 618.192 942.855 618.736 944.679 618.736Z" fill="#F56A81"/>
<path d="M868.751 466.88L848.111 456.56V451.76L868.751 441.44V445.616L853.871 452.912C853.263 453.2 852.687 453.456 852.143 453.68C851.631 453.872 851.247 454 850.991 454.064C851.279 454.128 851.695 454.272 852.239 454.496C852.783 454.688 853.327 454.928 853.871 455.216L868.751 462.56V466.88ZM886.397 470.384C884.605 470.384 883.037 470.112 881.693 469.568C880.381 468.992 879.325 468.192 878.525 467.168C877.757 466.144 877.293 464.928 877.133 463.52H881.453C881.645 464.448 882.157 465.184 882.989 465.728C883.853 466.272 884.989 466.544 886.397 466.544H888.413C890.109 466.544 891.373 466.208 892.205 465.536C893.037 464.832 893.453 463.904 893.453 462.752C893.453 461.632 893.069 460.752 892.301 460.112C891.565 459.44 890.461 458.992 888.989 458.768L885.437 458.192C882.845 457.744 880.909 456.944 879.629 455.792C878.381 454.608 877.757 452.896 877.757 450.656C877.757 448.288 878.509 446.464 880.013 445.184C881.517 443.872 883.773 443.216 886.781 443.216H888.605C891.133 443.216 893.165 443.808 894.701 444.992C896.237 446.176 897.165 447.776 897.484 449.792H893.165C892.973 448.96 892.493 448.304 891.725 447.824C890.957 447.312 889.917 447.056 888.605 447.056H886.781C885.149 447.056 883.949 447.36 883.181 447.968C882.445 448.576 882.077 449.488 882.077 450.704C882.077 451.792 882.397 452.592 883.037 453.104C883.677 453.616 884.685 453.984 886.061 454.208L889.613 454.784C892.461 455.232 894.525 456.064 895.805 457.28C897.117 458.496 897.773 460.256 897.773 462.56C897.773 464.992 896.989 466.912 895.421 468.32C893.885 469.696 891.549 470.384 888.413 470.384H886.397ZM918.874 470C916.602 470 914.826 469.392 913.546 468.176C912.298 466.96 911.674 465.248 911.674 463.04V447.536H904.234V443.6H911.674V436.16H915.994V443.6H926.554V447.536H915.994V463.04C915.994 465.056 916.954 466.064 918.874 466.064H926.074V470H918.874ZM943.239 470.48C940.615 470.48 938.487 469.6 936.855 467.84C935.255 466.08 934.455 463.696 934.455 460.688V452.96C934.455 449.92 935.255 447.52 936.855 445.76C938.455 444 940.583 443.12 943.239 443.12C945.415 443.12 947.159 443.712 948.471 444.896C949.783 446.08 950.439 447.664 950.439 449.648L949.575 448.64H950.535L950.439 442.64V434.96H954.759V470H950.439V464.96H949.575L950.439 463.952C950.439 465.968 949.783 467.568 948.471 468.752C947.159 469.904 945.415 470.48 943.239 470.48ZM944.679 466.736C946.471 466.736 947.879 466.176 948.903 465.056C949.927 463.936 950.439 462.384 950.439 460.4V453.2C950.439 451.216 949.927 449.664 948.903 448.544C947.879 447.424 946.471 446.864 944.679 446.864C942.855 446.864 941.415 447.408 940.359 448.496C939.303 449.584 938.775 451.152 938.775 453.2V460.4C938.775 462.448 939.303 464.016 940.359 465.104C941.415 466.192 942.855 466.736 944.679 466.736ZM963.236 470V466.064H972.596V447.536H964.436V443.6H976.916V466.064H985.796V470H963.236ZM974.276 438.848C973.22 438.848 972.388 438.576 971.78 438.032C971.172 437.488 970.868 436.752 970.868 435.824C970.868 434.864 971.172 434.112 971.78 433.568C972.388 432.992 973.22 432.704 974.276 432.704C975.332 432.704 976.164 432.992 976.772 433.568C977.38 434.112 977.684 434.864 977.684 435.824C977.684 436.752 977.38 437.488 976.772 438.032C976.164 438.576 975.332 438.848 974.276 438.848ZM1002.34 470.384C1000.23 470.384 998.402 469.984 996.866 469.184C995.33 468.384 994.13 467.232 993.266 465.728C992.434 464.192 992.018 462.384 992.018 460.304V453.296C992.018 451.184 992.434 449.376 993.266 447.872C994.13 446.368 995.33 445.216 996.866 444.416C998.402 443.616 1000.23 443.216 1002.34 443.216C1004.45 443.216 1006.27 443.616 1007.81 444.416C1009.35 445.216 1010.53 446.368 1011.36 447.872C1012.23 449.376 1012.66 451.168 1012.66 453.248V460.304C1012.66 462.384 1012.23 464.192 1011.36 465.728C1010.53 467.232 1009.35 468.384 1007.81 469.184C1006.27 469.984 1004.45 470.384 1002.34 470.384ZM1002.34 466.544C1004.23 466.544 1005.7 466.016 1006.75 464.96C1007.81 463.904 1008.34 462.352 1008.34 460.304V453.296C1008.34 451.248 1007.81 449.696 1006.75 448.64C1005.7 447.584 1004.23 447.056 1002.34 447.056C1000.48 447.056 999.01 447.584 997.922 448.64C996.866 449.696 996.338 451.248 996.338 453.296V460.304C996.338 462.352 996.866 463.904 997.922 464.96C999.01 466.016 1000.48 466.544 1002.34 466.544ZM1031.12 470.48C1029.9 470.48 1028.93 470.128 1028.19 469.424C1027.49 468.72 1027.13 467.776 1027.13 466.592C1027.13 465.344 1027.49 464.352 1028.19 463.616C1028.93 462.88 1029.9 462.512 1031.12 462.512C1032.33 462.512 1033.29 462.88 1034 463.616C1034.73 464.352 1035.1 465.344 1035.1 466.592C1035.1 467.776 1034.73 468.72 1034 469.424C1033.29 470.128 1032.33 470.48 1031.12 470.48ZM1049.92 470V434.96H1054.24V443.6V448.64H1055.15L1054.24 449.648C1054.24 447.568 1054.86 445.968 1056.11 444.848C1057.36 443.696 1059.08 443.12 1061.29 443.12C1063.95 443.12 1066.06 443.936 1067.63 445.568C1069.2 447.2 1069.98 449.424 1069.98 452.24V470H1065.66V452.72C1065.66 450.832 1065.15 449.376 1064.12 448.352C1063.13 447.296 1061.77 446.768 1060.04 446.768C1058.25 446.768 1056.83 447.328 1055.77 448.448C1054.75 449.568 1054.24 451.152 1054.24 453.2V470H1049.92ZM1078.36 466.88V462.704L1093.24 455.408C1093.85 455.12 1094.41 454.88 1094.92 454.688C1095.47 454.464 1095.87 454.32 1096.12 454.256C1095.83 454.192 1095.42 454.064 1094.87 453.872C1094.33 453.648 1093.79 453.392 1093.24 453.104L1078.36 445.76V441.44L1099 451.76V456.56L1078.36 466.88ZM1178.15 753.36L1177.57 743.28V738.96H1182.23V743.28L1181.7 753.36H1178.15ZM1168.4 753.36L1167.83 743.28V738.96H1172.48V743.28L1171.95 753.36H1168.4ZM1193.87 774V738.96H1198.19V753.936H1209.42V738.96H1213.74V774H1209.42V757.872H1198.19V774H1193.87ZM1232.59 774.48C1230.51 774.48 1228.68 774.064 1227.12 773.232C1225.58 772.4 1224.38 771.232 1223.52 769.728C1222.68 768.192 1222.27 766.416 1222.27 764.4V757.2C1222.27 755.152 1222.68 753.376 1223.52 751.872C1224.38 750.368 1225.58 749.2 1227.12 748.368C1228.68 747.536 1230.51 747.12 1232.59 747.12C1234.67 747.12 1236.48 747.536 1238.01 748.368C1239.58 749.2 1240.78 750.368 1241.61 751.872C1242.48 753.376 1242.91 755.152 1242.91 757.2V761.856H1226.49V764.4C1226.49 766.48 1227.02 768.08 1228.08 769.2C1229.13 770.288 1230.64 770.832 1232.59 770.832C1234.25 770.832 1235.6 770.544 1236.62 769.968C1237.64 769.36 1238.27 768.464 1238.49 767.28H1242.81C1242.52 769.488 1241.44 771.248 1239.55 772.56C1237.69 773.84 1235.37 774.48 1232.59 774.48ZM1238.68 758.976V757.2C1238.68 755.12 1238.16 753.52 1237.1 752.4C1236.08 751.28 1234.57 750.72 1232.59 750.72C1230.64 750.72 1229.13 751.28 1228.08 752.4C1227.02 753.52 1226.49 755.12 1226.49 757.2V758.592H1239.02L1238.68 758.976ZM1264.97 774C1263.43 774 1262.09 773.696 1260.94 773.088C1259.78 772.48 1258.89 771.616 1258.25 770.496C1257.61 769.376 1257.29 768.064 1257.29 766.56V742.896H1248.41V738.96H1261.61V766.56C1261.61 767.648 1261.91 768.512 1262.52 769.152C1263.13 769.76 1263.94 770.064 1264.97 770.064H1273.37V774H1264.97ZM1293.75 774C1292.21 774 1290.87 773.696 1289.72 773.088C1288.57 772.48 1287.67 771.616 1287.03 770.496C1286.39 769.376 1286.07 768.064 1286.07 766.56V742.896H1277.19V738.96H1290.39V766.56C1290.39 767.648 1290.69 768.512 1291.3 769.152C1291.91 769.76 1292.73 770.064 1293.75 770.064H1302.15V774H1293.75ZM1318.93 774.384C1316.82 774.384 1315 773.984 1313.46 773.184C1311.92 772.384 1310.72 771.232 1309.86 769.728C1309.03 768.192 1308.61 766.384 1308.61 764.304V757.296C1308.61 755.184 1309.03 753.376 1309.86 751.872C1310.72 750.368 1311.92 749.216 1313.46 748.416C1315 747.616 1316.82 747.216 1318.93 747.216C1321.04 747.216 1322.87 747.616 1324.4 748.416C1325.94 749.216 1327.12 750.368 1327.96 751.872C1328.82 753.376 1329.25 755.168 1329.25 757.248V764.304C1329.25 766.384 1328.82 768.192 1327.96 769.728C1327.12 771.232 1325.94 772.384 1324.4 773.184C1322.87 773.984 1321.04 774.384 1318.93 774.384ZM1318.93 770.544C1320.82 770.544 1322.29 770.016 1323.35 768.96C1324.4 767.904 1324.93 766.352 1324.93 764.304V757.296C1324.93 755.248 1324.4 753.696 1323.35 752.64C1322.29 751.584 1320.82 751.056 1318.93 751.056C1317.08 751.056 1315.6 751.584 1314.52 752.64C1313.46 753.696 1312.93 755.248 1312.93 757.296V764.304C1312.93 766.352 1313.46 767.904 1314.52 768.96C1315.6 770.016 1317.08 770.544 1318.93 770.544ZM1367.33 774L1363.29 738.96H1367.42L1370.06 764.88C1370.13 765.584 1370.19 766.32 1370.25 767.088C1370.32 767.824 1370.37 768.528 1370.4 769.2C1370.46 769.872 1370.49 770.432 1370.49 770.88C1370.56 770.432 1370.61 769.872 1370.64 769.2C1370.7 768.528 1370.77 767.824 1370.83 767.088C1370.93 766.32 1371.02 765.584 1371.12 764.88L1374.38 738.96H1378.85L1381.82 764.88C1381.92 765.584 1382 766.32 1382.06 767.088C1382.16 767.824 1382.24 768.528 1382.3 769.2C1382.4 769.872 1382.46 770.432 1382.49 770.88C1382.53 770.432 1382.56 769.872 1382.59 769.2C1382.65 768.528 1382.72 767.824 1382.78 767.088C1382.88 766.32 1382.96 765.584 1383.02 764.88L1385.76 738.96H1389.69L1385.57 774H1380.14L1377.17 747.6C1377.1 746.864 1377.02 746.144 1376.93 745.44C1376.86 744.736 1376.8 744.08 1376.73 743.472C1376.67 742.864 1376.62 742.368 1376.59 741.984C1376.56 742.368 1376.49 742.864 1376.4 743.472C1376.33 744.08 1376.27 744.736 1376.21 745.44C1376.14 746.144 1376.06 746.864 1375.97 747.6L1372.75 774H1367.33ZM1405.28 774.384C1403.16 774.384 1401.34 773.984 1399.8 773.184C1398.27 772.384 1397.07 771.232 1396.2 769.728C1395.37 768.192 1394.96 766.384 1394.96 764.304V757.296C1394.96 755.184 1395.37 753.376 1396.2 751.872C1397.07 750.368 1398.27 749.216 1399.8 748.416C1401.34 747.616 1403.16 747.216 1405.28 747.216C1407.39 747.216 1409.21 747.616 1410.75 748.416C1412.28 749.216 1413.47 750.368 1414.3 751.872C1415.16 753.376 1415.6 755.168 1415.6 757.248V764.304C1415.6 766.384 1415.16 768.192 1414.3 769.728C1413.47 771.232 1412.28 772.384 1410.75 773.184C1409.21 773.984 1407.39 774.384 1405.28 774.384ZM1405.28 770.544C1407.16 770.544 1408.64 770.016 1409.69 768.96C1410.75 767.904 1411.28 766.352 1411.28 764.304V757.296C1411.28 755.248 1410.75 753.696 1409.69 752.64C1408.64 751.584 1407.16 751.056 1405.28 751.056C1403.42 751.056 1401.95 751.584 1400.86 752.64C1399.8 753.696 1399.28 755.248 1399.28 757.296V764.304C1399.28 766.352 1399.8 767.904 1400.86 768.96C1401.95 770.016 1403.42 770.544 1405.28 770.544ZM1424.98 774V747.6H1429.21V752.64H1430.22L1428.82 755.76C1428.82 752.912 1429.43 750.768 1430.65 749.328C1431.9 747.856 1433.74 747.12 1436.17 747.12C1438.95 747.12 1441.16 748 1442.79 749.76C1444.46 751.488 1445.29 753.84 1445.29 756.816V758.4H1440.97V757.2C1440.97 755.12 1440.46 753.536 1439.43 752.448C1438.44 751.328 1437.02 750.768 1435.16 750.768C1433.34 750.768 1431.9 751.328 1430.84 752.448C1429.82 753.568 1429.3 755.152 1429.3 757.2V774H1424.98ZM1466.44 774C1464.9 774 1463.56 773.696 1462.41 773.088C1461.25 772.48 1460.36 771.616 1459.72 770.496C1459.08 769.376 1458.76 768.064 1458.76 766.56V742.896H1449.88V738.96H1463.08V766.56C1463.08 767.648 1463.38 768.512 1463.99 769.152C1464.6 769.76 1465.41 770.064 1466.44 770.064H1474.84V774H1466.44ZM1490.08 774.48C1487.46 774.48 1485.33 773.6 1483.7 771.84C1482.1 770.08 1481.3 767.696 1481.3 764.688V756.96C1481.3 753.92 1482.1 751.52 1483.7 749.76C1485.3 748 1487.43 747.12 1490.08 747.12C1492.26 747.12 1494 747.712 1495.31 748.896C1496.63 750.08 1497.28 751.664 1497.28 753.648L1496.42 752.64H1497.38L1497.28 746.64V738.96H1501.6V774H1497.28V768.96H1496.42L1497.28 767.952C1497.28 769.968 1496.63 771.568 1495.31 772.752C1494 773.904 1492.26 774.48 1490.08 774.48ZM1491.52 770.736C1493.31 770.736 1494.72 770.176 1495.75 769.056C1496.77 767.936 1497.28 766.384 1497.28 764.4V757.2C1497.28 755.216 1496.77 753.664 1495.75 752.544C1494.72 751.424 1493.31 750.864 1491.52 750.864C1489.7 750.864 1488.26 751.408 1487.2 752.496C1486.15 753.584 1485.62 755.152 1485.62 757.2V764.4C1485.62 766.448 1486.15 768.016 1487.2 769.104C1488.26 770.192 1489.7 770.736 1491.52 770.736ZM1518.86 763.68L1517.86 744.72V738.96H1522.94V744.72L1521.94 763.68H1518.86ZM1519.68 774.24C1518.85 774.24 1518.16 773.968 1517.62 773.424C1517.07 772.88 1516.8 772.192 1516.8 771.36C1516.8 770.528 1517.07 769.84 1517.62 769.296C1518.16 768.752 1518.85 768.48 1519.68 768.48H1521.12C1522.05 768.48 1522.75 768.752 1523.23 769.296C1523.74 769.808 1524 770.48 1524 771.312C1524 772.144 1523.73 772.848 1523.18 773.424C1522.64 773.968 1521.95 774.24 1521.12 774.24H1519.68ZM1609.86 753.36L1609.29 743.28V738.96H1613.94V743.28L1613.42 753.36H1609.86ZM1600.12 753.36L1599.54 743.28V738.96H1604.2V743.28L1603.67 753.36H1600.12Z" fill="#B2FACA"/>
<path d="M838.53 627.76C833.986 626.64 830.45 624.432 827.922 621.136C825.394 617.84 824.13 613.808 824.13 609.04V600.4C824.13 597.264 824.706 594.432 825.858 591.904C827.042 589.344 828.706 587.184 830.85 585.424C833.026 583.664 835.586 582.416 838.53 581.68V585.76C836.482 586.24 834.706 587.168 833.202 588.544C831.698 589.888 830.53 591.568 829.698 593.584C828.866 595.6 828.45 597.872 828.45 600.4V609.04C828.45 611.504 828.85 613.744 829.65 615.76C830.482 617.776 831.65 619.456 833.154 620.8C834.69 622.112 836.482 623.008 838.53 623.488V627.76ZM964.676 627.76V623.488C966.756 623.008 968.548 622.112 970.052 620.8C971.556 619.456 972.708 617.776 973.508 615.76C974.34 613.744 974.756 611.504 974.756 609.04V600.4C974.756 597.872 974.34 595.6 973.508 593.584C972.676 591.568 971.508 589.888 970.004 588.544C968.5 587.168 966.724 586.24 964.676 585.76V581.68C967.652 582.416 970.212 583.664 972.356 585.424C974.5 587.184 976.148 589.344 977.3 591.904C978.484 594.432 979.076 597.264 979.076 600.4V609.04C979.076 613.808 977.812 617.84 975.284 621.136C972.756 624.432 969.22 626.64 964.676 627.76ZM607.56 703.28C605.672 703.28 604.04 702.96 602.664 702.32C601.32 701.712 600.296 700.8 599.592 699.584C598.888 698.4 598.584 696.976 598.68 695.312L599.16 687.44C599.256 685.744 599 684.528 598.392 683.792C597.784 683.024 596.44 682.64 594.36 682.64H589.08V678.8H594.36C596.44 678.8 597.784 678.432 598.392 677.696C599 676.928 599.256 675.696 599.16 674L598.68 666.128C598.584 664.432 598.888 662.992 599.592 661.808C600.296 660.624 601.32 659.728 602.664 659.12C604.04 658.48 605.672 658.16 607.56 658.16H609.72V662H607.56C606.056 662 604.904 662.352 604.104 663.056C603.304 663.728 602.936 664.752 603 666.128L603.48 674C603.608 676.08 603.112 677.744 601.992 678.992C600.872 680.208 599.288 680.816 597.24 680.816V680.576C599.256 680.576 600.824 681.2 601.944 682.448C603.096 683.696 603.608 685.36 603.48 687.44L603 695.312C602.936 696.688 603.304 697.712 604.104 698.384C604.904 699.088 606.056 699.44 607.56 699.44H609.72V703.28H607.56ZM924.874 779.76C920.33 778.64 916.794 776.432 914.266 773.136C911.738 769.84 910.474 765.808 910.474 761.04V752.4C910.474 749.264 911.05 746.432 912.202 743.904C913.386 741.344 915.05 739.184 917.194 737.424C919.37 735.664 921.93 734.416 924.874 733.68V737.76C922.826 738.24 921.05 739.168 919.546 740.544C918.042 741.888 916.874 743.568 916.042 745.584C915.21 747.6 914.794 749.872 914.794 752.4V761.04C914.794 763.504 915.194 765.744 915.994 767.76C916.826 769.776 917.994 771.456 919.498 772.8C921.034 774.112 922.826 775.008 924.874 775.488V779.76ZM1110.98 781.68L1114.82 766.752H1121.06L1114.82 781.68H1110.98ZM1626.65 779.76V775.488C1628.73 775.008 1630.52 774.112 1632.02 772.8C1633.53 771.456 1634.68 769.776 1635.48 767.76C1636.31 765.744 1636.73 763.504 1636.73 761.04V752.4C1636.73 749.872 1636.31 747.6 1635.48 745.584C1634.65 743.568 1633.48 741.888 1631.97 740.544C1630.47 739.168 1628.69 738.24 1626.65 737.76V733.68C1629.62 734.416 1632.18 735.664 1634.33 737.424C1636.47 739.184 1638.12 741.344 1639.27 743.904C1640.45 746.432 1641.05 749.264 1641.05 752.4V761.04C1641.05 765.808 1639.78 769.84 1637.25 773.136C1634.73 776.432 1631.19 778.64 1626.65 779.76ZM1658.07 781.68L1661.91 766.752H1668.15L1661.91 781.68H1658.07ZM1663.83 754.32C1662.77 754.32 1661.91 753.984 1661.23 753.312C1660.56 752.64 1660.23 751.776 1660.23 750.72C1660.23 749.696 1660.56 748.848 1661.23 748.176C1661.94 747.472 1662.8 747.12 1663.83 747.12H1664.79C1665.81 747.12 1666.66 747.472 1667.33 748.176C1668.03 748.848 1668.39 749.696 1668.39 750.72C1668.39 751.776 1668.05 752.64 1667.38 753.312C1666.71 753.984 1665.84 754.32 1664.79 754.32H1663.83ZM896.093 855.76C891.549 854.64 888.013 852.432 885.484 849.136C882.957 845.84 881.693 841.808 881.693 837.04V828.4C881.693 825.264 882.269 822.432 883.421 819.904C884.605 817.344 886.269 815.184 888.413 813.424C890.589 811.664 893.149 810.416 896.093 809.68V813.76C894.045 814.24 892.269 815.168 890.765 816.544C889.261 817.888 888.093 819.568 887.261 821.584C886.429 823.6 886.013 825.872 886.013 828.4V837.04C886.013 839.504 886.413 841.744 887.213 843.76C888.045 845.776 889.213 847.456 890.717 848.8C892.253 850.112 894.045 851.008 896.093 851.488V855.76ZM1079.8 855.76V851.488C1081.88 851.008 1083.67 850.112 1085.18 848.8C1086.68 847.456 1087.83 845.776 1088.63 843.76C1089.47 841.744 1089.88 839.504 1089.88 837.04V828.4C1089.88 825.872 1089.47 823.6 1088.63 821.584C1087.8 819.568 1086.63 817.888 1085.13 816.544C1083.63 815.168 1081.85 814.24 1079.8 813.76V809.68C1082.78 810.416 1085.34 811.664 1087.48 813.424C1089.63 815.184 1091.27 817.344 1092.43 819.904C1093.61 822.432 1094.2 825.264 1094.2 828.4V837.04C1094.2 841.808 1092.94 845.84 1090.41 849.136C1087.88 852.432 1084.35 854.64 1079.8 855.76ZM1111.22 857.68L1115.06 842.752H1121.3L1115.06 857.68H1111.22ZM1116.98 830.32C1115.93 830.32 1115.06 829.984 1114.39 829.312C1113.72 828.64 1113.38 827.776 1113.38 826.72C1113.38 825.696 1113.72 824.848 1114.39 824.176C1115.09 823.472 1115.96 823.12 1116.98 823.12H1117.94C1118.97 823.12 1119.81 823.472 1120.49 824.176C1121.19 824.848 1121.54 825.696 1121.54 826.72C1121.54 827.776 1121.21 828.64 1120.53 829.312C1119.86 829.984 1119 830.32 1117.94 830.32H1116.98ZM589.08 931.28V927.44H591.24C592.744 927.44 593.896 927.088 594.696 926.384C595.496 925.712 595.864 924.688 595.8 923.312L595.32 915.44C595.192 913.36 595.688 911.696 596.808 910.448C597.96 909.2 599.544 908.576 601.56 908.576V908.816C599.512 908.816 597.928 908.208 596.808 906.992C595.688 905.744 595.192 904.08 595.32 902L595.8 894.128C595.864 892.752 595.496 891.728 594.696 891.056C593.896 890.352 592.744 890 591.24 890H589.08V886.16H591.24C593.128 886.16 594.744 886.48 596.088 887.12C597.464 887.728 598.504 888.624 599.208 889.808C599.912 890.992 600.216 892.432 600.12 894.128L599.64 902C599.544 903.696 599.8 904.928 600.408 905.696C601.016 906.432 602.36 906.8 604.44 906.8H609.72V910.64H604.44C602.392 910.64 601.048 911.024 600.408 911.792C599.8 912.528 599.544 913.744 599.64 915.44L600.12 923.312C600.216 924.976 599.912 926.4 599.208 927.584C598.504 928.8 597.464 929.712 596.088 930.32C594.744 930.96 593.128 931.28 591.24 931.28H589.08Z" fill="#CAB2FA"/>
<path d="M703.293 622V595.6H707.085V598.768H707.949L707.277 599.92C707.277 598.448 707.661 597.28 708.429 596.416C709.229 595.552 710.301 595.12 711.645 595.12C713.117 595.12 714.253 595.664 715.053 596.752C715.853 597.84 716.253 599.376 716.253 601.36L714.957 598.768H716.973L716.061 599.92C716.061 598.448 716.461 597.28 717.261 596.416C718.093 595.552 719.181 595.12 720.525 595.12C722.189 595.12 723.469 595.744 724.365 596.992C725.293 598.24 725.757 599.888 725.757 601.936V622H721.773V601.888C721.773 600.8 721.533 599.952 721.053 599.344C720.605 598.736 719.933 598.432 719.037 598.432C718.173 598.432 717.485 598.736 716.973 599.344C716.493 599.92 716.253 600.752 716.253 601.84V622H712.797V601.888C712.797 600.768 712.541 599.92 712.029 599.344C711.549 598.736 710.861 598.432 709.965 598.432C709.069 598.432 708.397 598.736 707.949 599.344C707.501 599.92 707.277 600.752 707.277 601.84V622H703.293ZM741.002 622.48C738.218 622.48 736.026 621.776 734.426 620.368C732.826 618.928 732.026 616.992 732.026 614.56C732.026 612.096 732.826 610.16 734.426 608.752C736.026 607.344 738.186 606.64 740.906 606.64H749.066V604C749.066 602.368 748.57 601.12 747.578 600.256C746.618 599.36 745.242 598.912 743.45 598.912C741.882 598.912 740.57 599.248 739.514 599.92C738.458 600.56 737.85 601.44 737.69 602.56H733.37C733.658 600.288 734.73 598.48 736.586 597.136C738.442 595.792 740.762 595.12 743.546 595.12C746.586 595.12 748.986 595.904 750.746 597.472C752.506 599.04 753.386 601.168 753.386 603.856V622H749.162V616.96H748.442L749.162 616.24C749.162 618.16 748.41 619.68 746.906 620.8C745.434 621.92 743.466 622.48 741.002 622.48ZM742.058 619.072C744.106 619.072 745.786 618.56 747.098 617.536C748.41 616.512 749.066 615.2 749.066 613.6V609.856H741.002C739.562 609.856 738.426 610.256 737.594 611.056C736.762 611.856 736.346 612.944 736.346 614.32C736.346 615.792 736.842 616.96 737.834 617.824C738.858 618.656 740.266 619.072 742.058 619.072ZM761.768 622V618.064H771.128V599.536H762.968V595.6H775.448V618.064H784.328V622H761.768ZM772.808 590.848C771.752 590.848 770.92 590.576 770.312 590.032C769.704 589.488 769.4 588.752 769.4 587.824C769.4 586.864 769.704 586.112 770.312 585.568C770.92 584.992 771.752 584.704 772.808 584.704C773.864 584.704 774.696 584.992 775.304 585.568C775.912 586.112 776.216 586.864 776.216 587.824C776.216 588.752 775.912 589.488 775.304 590.032C774.696 590.576 773.864 590.848 772.808 590.848ZM790.885 622V595.6H795.205V600.64H796.117L795.205 601.648C795.205 599.568 795.829 597.968 797.077 596.848C798.325 595.696 800.053 595.12 802.261 595.12C804.917 595.12 807.029 595.936 808.597 597.568C810.165 599.2 810.949 601.424 810.949 604.24V622H806.629V604.72C806.629 602.832 806.117 601.392 805.093 600.4C804.101 599.376 802.741 598.864 801.013 598.864C799.221 598.864 797.797 599.408 796.741 600.496C795.717 601.584 795.205 603.152 795.205 605.2V622H790.885ZM710.685 774V754.176H703.005V750.24H710.685V745.68C710.685 743.6 711.341 741.968 712.653 740.784C713.965 739.568 715.773 738.96 718.077 738.96H725.805V742.896H718.077C717.085 742.896 716.317 743.136 715.773 743.616C715.261 744.064 715.005 744.752 715.005 745.68V750.24H725.805V754.176H715.005V774H710.685ZM733.322 782.64V747.6H737.642V752.64H738.506L737.642 753.648C737.642 751.632 738.298 750.048 739.61 748.896C740.954 747.712 742.714 747.12 744.89 747.12C747.546 747.12 749.658 748 751.226 749.76C752.826 751.488 753.626 753.872 753.626 756.912V764.64C753.626 766.656 753.258 768.4 752.522 769.872C751.818 771.344 750.81 772.48 749.498 773.28C748.218 774.08 746.682 774.48 744.89 774.48C742.746 774.48 741.002 773.888 739.658 772.704C738.314 771.52 737.642 769.936 737.642 767.952L738.506 768.96H737.546L737.642 774.96V782.64H733.322ZM743.45 770.736C745.274 770.736 746.698 770.192 747.722 769.104C748.778 768.016 749.306 766.448 749.306 764.4V757.2C749.306 755.152 748.778 753.584 747.722 752.496C746.698 751.408 745.274 750.864 743.45 750.864C741.69 750.864 740.282 751.424 739.226 752.544C738.17 753.664 737.642 755.216 737.642 757.2V764.4C737.642 766.384 738.17 767.936 739.226 769.056C740.282 770.176 741.69 770.736 743.45 770.736ZM763.016 774V747.6H767.24V752.64H768.248L766.856 755.76C766.856 752.912 767.464 750.768 768.68 749.328C769.928 747.856 771.768 747.12 774.2 747.12C776.984 747.12 779.192 748 780.824 749.76C782.488 751.488 783.32 753.84 783.32 756.816V758.4H779V757.2C779 755.12 778.488 753.536 777.464 752.448C776.472 751.328 775.048 750.768 773.192 750.768C771.368 750.768 769.928 751.328 768.872 752.448C767.848 753.568 767.336 755.152 767.336 757.2V774H763.016ZM790.549 774V770.064H799.909V751.536H791.749V747.6H804.229V770.064H813.109V774H790.549ZM801.589 742.848C800.533 742.848 799.701 742.576 799.093 742.032C798.485 741.488 798.181 740.752 798.181 739.824C798.181 738.864 798.485 738.112 799.093 737.568C799.701 736.992 800.533 736.704 801.589 736.704C802.645 736.704 803.477 736.992 804.085 737.568C804.693 738.112 804.997 738.864 804.997 739.824C804.997 740.752 804.693 741.488 804.085 742.032C803.477 742.576 802.645 742.848 801.589 742.848ZM819.666 774V747.6H823.986V752.64H824.898L823.986 753.648C823.986 751.568 824.61 749.968 825.858 748.848C827.106 747.696 828.834 747.12 831.042 747.12C833.698 747.12 835.81 747.936 837.378 749.568C838.946 751.2 839.73 753.424 839.73 756.24V774H835.41V756.72C835.41 754.832 834.898 753.392 833.874 752.4C832.882 751.376 831.522 750.864 829.794 750.864C828.002 750.864 826.578 751.408 825.522 752.496C824.498 753.584 823.986 755.152 823.986 757.2V774H819.666ZM861.311 774C859.039 774 857.263 773.392 855.983 772.176C854.735 770.96 854.111 769.248 854.111 767.04V751.536H846.671V747.6H854.111V740.16H858.431V747.6H868.991V751.536H858.431V767.04C858.431 769.056 859.391 770.064 861.311 770.064H868.511V774H861.311ZM883.373 774V754.176H875.693V750.24H883.373V745.68C883.373 743.6 884.029 741.968 885.341 740.784C886.653 739.568 888.461 738.96 890.765 738.96H898.493V742.896H890.765C889.773 742.896 889.005 743.136 888.461 743.616C887.949 744.064 887.693 744.752 887.693 745.68V750.24H898.493V754.176H887.693V774H883.373ZM943.959 774.384C942.167 774.384 940.599 774.112 939.255 773.568C937.943 772.992 936.887 772.192 936.087 771.168C935.319 770.144 934.855 768.928 934.695 767.52H939.015C939.207 768.448 939.719 769.184 940.551 769.728C941.415 770.272 942.551 770.544 943.959 770.544H945.975C947.671 770.544 948.935 770.208 949.767 769.536C950.599 768.832 951.015 767.904 951.015 766.752C951.015 765.632 950.631 764.752 949.863 764.112C949.127 763.44 948.023 762.992 946.551 762.768L942.999 762.192C940.407 761.744 938.471 760.944 937.191 759.792C935.943 758.608 935.319 756.896 935.319 754.656C935.319 752.288 936.071 750.464 937.575 749.184C939.079 747.872 941.335 747.216 944.343 747.216H946.167C948.695 747.216 950.727 747.808 952.263 748.992C953.799 750.176 954.727 751.776 955.047 753.792H950.727C950.535 752.96 950.055 752.304 949.287 751.824C948.519 751.312 947.479 751.056 946.167 751.056H944.343C942.711 751.056 941.511 751.36 940.743 751.968C940.007 752.576 939.639 753.488 939.639 754.704C939.639 755.792 939.959 756.592 940.599 757.104C941.239 757.616 942.247 757.984 943.623 758.208L947.175 758.784C950.023 759.232 952.087 760.064 953.367 761.28C954.679 762.496 955.335 764.256 955.335 766.56C955.335 768.992 954.551 770.912 952.983 772.32C951.447 773.696 949.111 774.384 945.975 774.384H943.959ZM976.436 774C974.164 774 972.388 773.392 971.108 772.176C969.86 770.96 969.236 769.248 969.236 767.04V751.536H961.796V747.6H969.236V740.16H973.556V747.6H984.116V751.536H973.556V767.04C973.556 769.056 974.516 770.064 976.436 770.064H983.636V774H976.436ZM1000.8 774.48C998.178 774.48 996.05 773.6 994.418 771.84C992.818 770.08 992.018 767.696 992.018 764.688V756.96C992.018 753.92 992.818 751.52 994.418 749.76C996.018 748 998.146 747.12 1000.8 747.12C1002.98 747.12 1004.72 747.712 1006.03 748.896C1007.35 750.08 1008 751.664 1008 753.648L1007.14 752.64H1008.1L1008 746.64V738.96H1012.32V774H1008V768.96H1007.14L1008 767.952C1008 769.968 1007.35 771.568 1006.03 772.752C1004.72 773.904 1002.98 774.48 1000.8 774.48ZM1002.24 770.736C1004.03 770.736 1005.44 770.176 1006.47 769.056C1007.49 767.936 1008 766.384 1008 764.4V757.2C1008 755.216 1007.49 753.664 1006.47 752.544C1005.44 751.424 1004.03 750.864 1002.24 750.864C1000.42 750.864 998.978 751.408 997.922 752.496C996.866 753.584 996.338 755.152 996.338 757.2V764.4C996.338 766.448 996.866 768.016 997.922 769.104C998.978 770.192 1000.42 770.736 1002.24 770.736ZM1031.12 774.384C1029.01 774.384 1027.18 773.984 1025.65 773.184C1024.11 772.384 1022.91 771.232 1022.05 769.728C1021.21 768.192 1020.8 766.384 1020.8 764.304V757.296C1020.8 755.184 1021.21 753.376 1022.05 751.872C1022.91 750.368 1024.11 749.216 1025.65 748.416C1027.18 747.616 1029.01 747.216 1031.12 747.216C1033.23 747.216 1035.05 747.616 1036.59 748.416C1038.13 749.216 1039.31 750.368 1040.14 751.872C1041.01 753.376 1041.44 755.168 1041.44 757.248V764.304C1041.44 766.384 1041.01 768.192 1040.14 769.728C1039.31 771.232 1038.13 772.384 1036.59 773.184C1035.05 773.984 1033.23 774.384 1031.12 774.384ZM1031.12 770.544C1033.01 770.544 1034.48 770.016 1035.53 768.96C1036.59 767.904 1037.12 766.352 1037.12 764.304V757.296C1037.12 755.248 1036.59 753.696 1035.53 752.64C1034.48 751.584 1033.01 751.056 1031.12 751.056C1029.26 751.056 1027.79 751.584 1026.7 752.64C1025.65 753.696 1025.12 755.248 1025.12 757.296V764.304C1025.12 766.352 1025.65 767.904 1026.7 768.96C1027.79 770.016 1029.26 770.544 1031.12 770.544ZM1059.85 774.48C1056.81 774.48 1054.38 773.584 1052.56 771.792C1050.73 769.968 1049.82 767.504 1049.82 764.4V747.6H1054.14V764.4C1054.14 766.384 1054.65 767.936 1055.68 769.056C1056.7 770.144 1058.09 770.688 1059.85 770.688C1061.64 770.688 1063.05 770.144 1064.08 769.056C1065.13 767.936 1065.66 766.384 1065.66 764.4V747.6H1069.98V764.4C1069.98 767.504 1069.05 769.968 1067.2 771.792C1065.34 773.584 1062.89 774.48 1059.85 774.48ZM1091.56 774C1089.29 774 1087.51 773.392 1086.23 772.176C1084.99 770.96 1084.36 769.248 1084.36 767.04V751.536H1076.92V747.6H1084.36V740.16H1088.68V747.6H1099.24V751.536H1088.68V767.04C1088.68 769.056 1089.64 770.064 1091.56 770.064H1098.76V774H1091.56ZM710.685 850V830.176H703.005V826.24H710.685V821.68C710.685 819.6 711.341 817.968 712.653 816.784C713.965 815.568 715.773 814.96 718.077 814.96H725.805V818.896H718.077C717.085 818.896 716.317 819.136 715.773 819.616C715.261 820.064 715.005 820.752 715.005 821.68V826.24H725.805V830.176H715.005V850H710.685ZM739.466 850V830.176H731.786V826.24H739.466V821.68C739.466 819.6 740.122 817.968 741.434 816.784C742.746 815.568 744.554 814.96 746.858 814.96H754.586V818.896H746.858C745.866 818.896 745.098 819.136 744.554 819.616C744.042 820.064 743.786 820.752 743.786 821.68V826.24H754.586V830.176H743.786V850H739.466ZM775.688 850C774.152 850 772.808 849.696 771.656 849.088C770.504 848.48 769.608 847.616 768.968 846.496C768.328 845.376 768.008 844.064 768.008 842.56V818.896H759.128V814.96H772.328V842.56C772.328 843.648 772.632 844.512 773.24 845.152C773.848 845.76 774.664 846.064 775.688 846.064H784.088V850H775.688ZM800.821 850.48C797.781 850.48 795.349 849.584 793.525 847.792C791.701 845.968 790.789 843.504 790.789 840.4V823.6H795.109V840.4C795.109 842.384 795.621 843.936 796.645 845.056C797.669 846.144 799.061 846.688 800.821 846.688C802.613 846.688 804.021 846.144 805.045 845.056C806.101 843.936 806.629 842.384 806.629 840.4V823.6H810.949V840.4C810.949 843.504 810.021 845.968 808.165 847.792C806.309 849.584 803.861 850.48 800.821 850.48ZM828.834 850.384C827.042 850.384 825.474 850.112 824.13 849.568C822.818 848.992 821.762 848.192 820.962 847.168C820.194 846.144 819.73 844.928 819.57 843.52H823.89C824.082 844.448 824.594 845.184 825.426 845.728C826.29 846.272 827.426 846.544 828.834 846.544H830.85C832.546 846.544 833.81 846.208 834.642 845.536C835.474 844.832 835.89 843.904 835.89 842.752C835.89 841.632 835.506 840.752 834.738 840.112C834.002 839.44 832.898 838.992 831.426 838.768L827.874 838.192C825.282 837.744 823.346 836.944 822.066 835.792C820.818 834.608 820.194 832.896 820.194 830.656C820.194 828.288 820.946 826.464 822.45 825.184C823.954 823.872 826.21 823.216 829.218 823.216H831.042C833.57 823.216 835.602 823.808 837.138 824.992C838.674 826.176 839.602 827.776 839.922 829.792H835.602C835.41 828.96 834.93 828.304 834.162 827.824C833.394 827.312 832.354 827.056 831.042 827.056H829.218C827.586 827.056 826.386 827.36 825.618 827.968C824.882 828.576 824.514 829.488 824.514 830.704C824.514 831.792 824.834 832.592 825.474 833.104C826.114 833.616 827.122 833.984 828.498 834.208L832.05 834.784C834.898 835.232 836.962 836.064 838.242 837.28C839.554 838.496 840.21 840.256 840.21 842.56C840.21 844.992 839.426 846.912 837.858 848.32C836.322 849.696 833.986 850.384 830.85 850.384H828.834ZM848.447 850V814.96H852.767V823.6V828.64H853.679L852.767 829.648C852.767 827.568 853.391 825.968 854.639 824.848C855.887 823.696 857.615 823.12 859.823 823.12C862.479 823.12 864.591 823.936 866.159 825.568C867.727 827.2 868.511 829.424 868.511 832.24V850H864.191V832.72C864.191 830.832 863.679 829.376 862.655 828.352C861.663 827.296 860.303 826.768 858.575 826.768C856.783 826.768 855.359 827.328 854.303 828.448C853.279 829.568 852.767 831.152 852.767 833.2V850H848.447ZM915.178 850.384C913.386 850.384 911.818 850.112 910.474 849.568C909.162 848.992 908.106 848.192 907.306 847.168C906.538 846.144 906.074 844.928 905.914 843.52H910.234C910.426 844.448 910.938 845.184 911.77 845.728C912.634 846.272 913.77 846.544 915.178 846.544H917.194C918.89 846.544 920.154 846.208 920.986 845.536C921.818 844.832 922.234 843.904 922.234 842.752C922.234 841.632 921.85 840.752 921.082 840.112C920.346 839.44 919.242 838.992 917.77 838.768L914.218 838.192C911.626 837.744 909.69 836.944 908.41 835.792C907.162 834.608 906.538 832.896 906.538 830.656C906.538 828.288 907.29 826.464 908.794 825.184C910.298 823.872 912.554 823.216 915.562 823.216H917.386C919.914 823.216 921.946 823.808 923.482 824.992C925.018 826.176 925.946 827.776 926.266 829.792H921.946C921.754 828.96 921.274 828.304 920.506 827.824C919.738 827.312 918.698 827.056 917.386 827.056H915.562C913.93 827.056 912.73 827.36 911.962 827.968C911.226 828.576 910.858 829.488 910.858 830.704C910.858 831.792 911.178 832.592 911.818 833.104C912.458 833.616 913.466 833.984 914.842 834.208L918.394 834.784C921.242 835.232 923.306 836.064 924.586 837.28C925.898 838.496 926.554 840.256 926.554 842.56C926.554 844.992 925.77 846.912 924.202 848.32C922.666 849.696 920.33 850.384 917.194 850.384H915.178ZM947.655 850C945.383 850 943.607 849.392 942.327 848.176C941.079 846.96 940.455 845.248 940.455 843.04V827.536H933.015V823.6H940.455V816.16H944.775V823.6H955.335V827.536H944.775V843.04C944.775 845.056 945.735 846.064 947.655 846.064H954.855V850H947.655ZM972.02 850.48C969.396 850.48 967.268 849.6 965.636 847.84C964.036 846.08 963.236 843.696 963.236 840.688V832.96C963.236 829.92 964.036 827.52 965.636 825.76C967.236 824 969.364 823.12 972.02 823.12C974.196 823.12 975.94 823.712 977.252 824.896C978.564 826.08 979.22 827.664 979.22 829.648L978.356 828.64H979.316L979.22 822.64V814.96H983.54V850H979.22V844.96H978.356L979.22 843.952C979.22 845.968 978.564 847.568 977.252 848.752C975.94 849.904 974.196 850.48 972.02 850.48ZM973.46 846.736C975.252 846.736 976.66 846.176 977.684 845.056C978.708 843.936 979.22 842.384 979.22 840.4V833.2C979.22 831.216 978.708 829.664 977.684 828.544C976.66 827.424 975.252 826.864 973.46 826.864C971.636 826.864 970.196 827.408 969.14 828.496C968.084 829.584 967.556 831.152 967.556 833.2V840.4C967.556 842.448 968.084 844.016 969.14 845.104C970.196 846.192 971.636 846.736 973.46 846.736ZM1002.34 850.384C1000.23 850.384 998.402 849.984 996.866 849.184C995.33 848.384 994.13 847.232 993.266 845.728C992.434 844.192 992.018 842.384 992.018 840.304V833.296C992.018 831.184 992.434 829.376 993.266 827.872C994.13 826.368 995.33 825.216 996.866 824.416C998.402 823.616 1000.23 823.216 1002.34 823.216C1004.45 823.216 1006.27 823.616 1007.81 824.416C1009.35 825.216 1010.53 826.368 1011.36 827.872C1012.23 829.376 1012.66 831.168 1012.66 833.248V840.304C1012.66 842.384 1012.23 844.192 1011.36 845.728C1010.53 847.232 1009.35 848.384 1007.81 849.184C1006.27 849.984 1004.45 850.384 1002.34 850.384ZM1002.34 846.544C1004.23 846.544 1005.7 846.016 1006.75 844.96C1007.81 843.904 1008.34 842.352 1008.34 840.304V833.296C1008.34 831.248 1007.81 829.696 1006.75 828.64C1005.7 827.584 1004.23 827.056 1002.34 827.056C1000.48 827.056 999.01 827.584 997.922 828.64C996.866 829.696 996.338 831.248 996.338 833.296V840.304C996.338 842.352 996.866 843.904 997.922 844.96C999.01 846.016 1000.48 846.544 1002.34 846.544ZM1031.07 850.48C1028.03 850.48 1025.6 849.584 1023.77 847.792C1021.95 845.968 1021.04 843.504 1021.04 840.4V823.6H1025.36V840.4C1025.36 842.384 1025.87 843.936 1026.89 845.056C1027.92 846.144 1029.31 846.688 1031.07 846.688C1032.86 846.688 1034.27 846.144 1035.29 845.056C1036.35 843.936 1036.88 842.384 1036.88 840.4V823.6H1041.2V840.4C1041.2 843.504 1040.27 845.968 1038.41 847.792C1036.56 849.584 1034.11 850.48 1031.07 850.48ZM1062.78 850C1060.51 850 1058.73 849.392 1057.45 848.176C1056.2 846.96 1055.58 845.248 1055.58 843.04V827.536H1048.14V823.6H1055.58V816.16H1059.9V823.6H1070.46V827.536H1059.9V843.04C1059.9 845.056 1060.86 846.064 1062.78 846.064H1069.98V850H1062.78Z" fill="#F1EBFF"/>
<path d="M1555.42 779.28L1538.38 734.16H1542.94L1559.98 779.28H1555.42ZM1567.98 774V747.6H1572.3V752.64H1573.21L1572.3 753.648C1572.3 751.568 1572.92 749.968 1574.17 748.848C1575.42 747.696 1577.15 747.12 1579.35 747.12C1582.01 747.12 1584.12 747.936 1585.69 749.568C1587.26 751.2 1588.04 753.424 1588.04 756.24V774H1583.72V756.72C1583.72 754.832 1583.21 753.392 1582.19 752.4C1581.19 751.376 1579.83 750.864 1578.11 750.864C1576.31 750.864 1574.89 751.408 1573.83 752.496C1572.81 753.584 1572.3 755.152 1572.3 757.2V774H1567.98Z" fill="#FACAB2"/>
<rect x="565" y="397" width="1134" height="568" stroke="white" stroke-opacity="0.4" stroke-width="2"/>
<rect x="1467" y="187" width="53" height="68" rx="5" stroke="#F1EBFF" stroke-width="4"/>
<rect x="856" y="186" width="53" height="68" rx="5" stroke="#B2E2FA" stroke-width="4"/>
<rect x="928" y="715" width="177" height="76" rx="5" stroke="#B2E2FA" stroke-width="4"/>
<rect x="900" y="796" width="177" height="76" rx="5" stroke="#B2E2FA" stroke-width="4"/>
<rect x="700" y="715" width="205" height="76" rx="5" stroke="#F1EBFF" stroke-width="4"/>
<rect x="700" y="796" width="175" height="76" rx="5" stroke="#F1EBFF" stroke-width="4"/>
<rect x="566" y="410" width="566" height="94" fill="#2C2734" fill-opacity="0.6"/>
<path d="M880 255V522.879H1031V715" stroke="#B2E2FA" stroke-width="4" stroke-linecap="round"/>
<path d="M1178.5 255V383.5H1320V715" stroke="#B2FACA" stroke-width="4" stroke-linecap="round"/>
<path d="M1492 184.949V111H794V715" stroke="#F1EBFF" stroke-width="4" stroke-linecap="round"/>
<path d="M180.197 152.462H174.658C174.445 151.278 174.048 150.236 173.468 149.337C172.888 148.437 172.178 147.674 171.337 147.046C170.497 146.419 169.556 145.945 168.514 145.626C167.484 145.306 166.389 145.146 165.229 145.146C163.134 145.146 161.258 145.673 159.601 146.727C157.955 147.78 156.653 149.325 155.695 151.361C154.748 153.397 154.274 155.883 154.274 158.818C154.274 161.777 154.748 164.275 155.695 166.311C156.653 168.347 157.961 169.886 159.619 170.928C161.276 171.969 163.14 172.49 165.212 172.49C166.36 172.49 167.449 172.336 168.479 172.028C169.52 171.709 170.461 171.241 171.302 170.626C172.142 170.01 172.853 169.259 173.433 168.371C174.024 167.471 174.433 166.441 174.658 165.281L180.197 165.299C179.902 167.086 179.327 168.732 178.475 170.235C177.635 171.727 176.552 173.017 175.226 174.106C173.912 175.183 172.409 176.018 170.716 176.609C169.023 177.201 167.177 177.497 165.176 177.497C162.027 177.497 159.222 176.751 156.76 175.26C154.298 173.757 152.357 171.608 150.936 168.815C149.527 166.021 148.823 162.689 148.823 158.818C148.823 154.936 149.533 151.603 150.954 148.822C152.374 146.028 154.316 143.886 156.778 142.394C159.24 140.891 162.039 140.139 165.176 140.139C167.106 140.139 168.905 140.417 170.574 140.974C172.255 141.518 173.764 142.323 175.102 143.388C176.439 144.442 177.546 145.732 178.422 147.259C179.298 148.774 179.89 150.509 180.197 152.462ZM197.824 177.55C195.268 177.55 193.036 176.964 191.131 175.793C189.225 174.621 187.745 172.981 186.692 170.874C185.638 168.767 185.111 166.305 185.111 163.488C185.111 160.659 185.638 158.185 186.692 156.066C187.745 153.947 189.225 152.302 191.131 151.13C193.036 149.958 195.268 149.372 197.824 149.372C200.381 149.372 202.613 149.958 204.518 151.13C206.424 152.302 207.904 153.947 208.957 156.066C210.011 158.185 210.537 160.659 210.537 163.488C210.537 166.305 210.011 168.767 208.957 170.874C207.904 172.981 206.424 174.621 204.518 175.793C202.613 176.964 200.381 177.55 197.824 177.55ZM197.842 173.094C199.499 173.094 200.872 172.656 201.961 171.78C203.05 170.904 203.855 169.738 204.376 168.282C204.909 166.826 205.175 165.222 205.175 163.47C205.175 161.73 204.909 160.132 204.376 158.676C203.855 157.208 203.05 156.031 201.961 155.143C200.872 154.255 199.499 153.811 197.842 153.811C196.173 153.811 194.788 154.255 193.687 155.143C192.598 156.031 191.787 157.208 191.255 158.676C190.734 160.132 190.474 161.73 190.474 163.47C190.474 165.222 190.734 166.826 191.255 168.282C191.787 169.738 192.598 170.904 193.687 171.78C194.788 172.656 196.173 173.094 197.842 173.094ZM216.463 177V149.727H221.559V154.166H221.897C222.465 152.663 223.394 151.491 224.684 150.651C225.975 149.798 227.519 149.372 229.319 149.372C231.141 149.372 232.668 149.798 233.9 150.651C235.142 151.503 236.06 152.675 236.652 154.166H236.936C237.587 152.71 238.623 151.55 240.043 150.686C241.463 149.81 243.156 149.372 245.121 149.372C247.595 149.372 249.613 150.147 251.176 151.698C252.75 153.249 253.537 155.587 253.537 158.712V177H248.228V159.209C248.228 157.362 247.725 156.025 246.719 155.196C245.713 154.367 244.511 153.953 243.115 153.953C241.386 153.953 240.043 154.486 239.084 155.551C238.125 156.605 237.646 157.96 237.646 159.617V177H232.355V158.871C232.355 157.392 231.893 156.202 230.97 155.303C230.047 154.403 228.845 153.953 227.365 153.953C226.359 153.953 225.43 154.219 224.578 154.752C223.737 155.273 223.057 156.001 222.536 156.936C222.027 157.871 221.772 158.954 221.772 160.185V177H216.463ZM260.653 187.227V149.727H265.838V154.148H266.281C266.589 153.58 267.033 152.923 267.613 152.178C268.193 151.432 268.998 150.781 270.028 150.224C271.058 149.656 272.419 149.372 274.112 149.372C276.313 149.372 278.278 149.929 280.007 151.041C281.735 152.154 283.09 153.758 284.073 155.853C285.067 157.948 285.564 160.469 285.564 163.417C285.564 166.364 285.073 168.892 284.09 170.999C283.108 173.094 281.758 174.71 280.042 175.846C278.326 176.97 276.367 177.533 274.165 177.533C272.508 177.533 271.152 177.254 270.099 176.698C269.057 176.142 268.24 175.491 267.649 174.745C267.057 173.999 266.601 173.336 266.281 172.756H265.962V187.227H260.653ZM265.855 163.364C265.855 165.281 266.133 166.962 266.69 168.406C267.246 169.85 268.051 170.981 269.105 171.798C270.158 172.603 271.448 173.005 272.975 173.005C274.561 173.005 275.887 172.585 276.953 171.744C278.018 170.892 278.823 169.738 279.367 168.282C279.924 166.826 280.202 165.187 280.202 163.364C280.202 161.564 279.93 159.949 279.385 158.516C278.852 157.084 278.048 155.954 276.97 155.125C275.905 154.296 274.573 153.882 272.975 153.882C271.436 153.882 270.134 154.279 269.069 155.072C268.016 155.865 267.217 156.972 266.672 158.392C266.128 159.812 265.855 161.47 265.855 163.364ZM299.449 177.604C297.721 177.604 296.158 177.284 294.762 176.645C293.365 175.994 292.258 175.053 291.441 173.822C290.636 172.591 290.234 171.081 290.234 169.294C290.234 167.755 290.53 166.489 291.122 165.494C291.713 164.5 292.512 163.713 293.519 163.133C294.525 162.553 295.649 162.115 296.892 161.819C298.135 161.523 299.402 161.298 300.692 161.144C302.325 160.955 303.651 160.801 304.669 160.683C305.687 160.552 306.427 160.345 306.889 160.061C307.35 159.777 307.581 159.315 307.581 158.676V158.552C307.581 157.001 307.143 155.8 306.267 154.947C305.403 154.095 304.113 153.669 302.396 153.669C300.609 153.669 299.2 154.066 298.171 154.859C297.153 155.64 296.448 156.51 296.058 157.469L291.068 156.332C291.66 154.675 292.524 153.338 293.661 152.32C294.809 151.29 296.129 150.544 297.62 150.082C299.112 149.609 300.68 149.372 302.325 149.372C303.414 149.372 304.569 149.502 305.788 149.763C307.019 150.011 308.167 150.473 309.232 151.148C310.31 151.822 311.191 152.787 311.878 154.042C312.565 155.285 312.908 156.901 312.908 158.889V177H307.723V173.271H307.51C307.167 173.958 306.652 174.633 305.965 175.295C305.279 175.958 304.397 176.509 303.32 176.947C302.243 177.385 300.952 177.604 299.449 177.604ZM300.603 173.342C302.071 173.342 303.326 173.052 304.367 172.472C305.421 171.892 306.22 171.135 306.764 170.2C307.321 169.253 307.599 168.241 307.599 167.163V163.648C307.41 163.837 307.043 164.015 306.498 164.18C305.965 164.334 305.356 164.47 304.669 164.589C303.983 164.695 303.314 164.796 302.663 164.891C302.012 164.973 301.467 165.045 301.029 165.104C299.999 165.234 299.058 165.453 298.206 165.761C297.366 166.068 296.691 166.512 296.182 167.092C295.685 167.661 295.436 168.418 295.436 169.365C295.436 170.679 295.922 171.673 296.892 172.348C297.863 173.011 299.1 173.342 300.603 173.342ZM319.979 177V149.727H325.11V154.06H325.395C325.892 152.592 326.768 151.438 328.022 150.597C329.289 149.745 330.721 149.319 332.319 149.319C332.651 149.319 333.041 149.331 333.491 149.354C333.953 149.378 334.314 149.408 334.574 149.443V154.521C334.361 154.462 333.982 154.397 333.438 154.326C332.893 154.243 332.349 154.202 331.804 154.202C330.55 154.202 329.431 154.468 328.449 155.001C327.478 155.522 326.708 156.25 326.14 157.185C325.572 158.108 325.288 159.161 325.288 160.345V177H319.979ZM339.169 177V149.727H344.477V177H339.169ZM341.85 145.519C340.926 145.519 340.133 145.211 339.47 144.596C338.819 143.969 338.494 143.223 338.494 142.359C338.494 141.483 338.819 140.737 339.47 140.121C340.133 139.494 340.926 139.18 341.85 139.18C342.773 139.18 343.56 139.494 344.211 140.121C344.874 140.737 345.205 141.483 345.205 142.359C345.205 143.223 344.874 143.969 344.211 144.596C343.56 145.211 342.773 145.519 341.85 145.519ZM372.056 156.386L367.245 157.238C367.043 156.622 366.724 156.036 366.286 155.48C365.86 154.924 365.28 154.468 364.546 154.113C363.812 153.758 362.895 153.58 361.794 153.58C360.29 153.58 359.036 153.918 358.029 154.592C357.023 155.255 356.52 156.113 356.52 157.167C356.52 158.078 356.858 158.812 357.532 159.369C358.207 159.925 359.296 160.381 360.799 160.736L365.132 161.73C367.641 162.31 369.511 163.204 370.743 164.411C371.974 165.619 372.589 167.187 372.589 169.116C372.589 170.75 372.116 172.206 371.169 173.484C370.234 174.751 368.926 175.745 367.245 176.467C365.576 177.189 363.64 177.55 361.439 177.55C358.385 177.55 355.893 176.899 353.963 175.597C352.034 174.283 350.85 172.419 350.412 170.004L355.544 169.223C355.863 170.561 356.52 171.573 357.515 172.259C358.509 172.934 359.805 173.271 361.403 173.271C363.143 173.271 364.534 172.91 365.576 172.188C366.617 171.454 367.138 170.561 367.138 169.507C367.138 168.655 366.819 167.939 366.179 167.359C365.552 166.779 364.587 166.341 363.285 166.045L358.669 165.033C356.124 164.453 354.242 163.529 353.022 162.263C351.815 160.996 351.211 159.392 351.211 157.451C351.211 155.841 351.661 154.433 352.561 153.225C353.46 152.018 354.703 151.077 356.289 150.402C357.876 149.715 359.693 149.372 361.74 149.372C364.688 149.372 367.008 150.011 368.701 151.29C370.393 152.556 371.512 154.255 372.056 156.386ZM389.914 177.55C387.357 177.55 385.126 176.964 383.22 175.793C381.315 174.621 379.835 172.981 378.781 170.874C377.728 168.767 377.201 166.305 377.201 163.488C377.201 160.659 377.728 158.185 378.781 156.066C379.835 153.947 381.315 152.302 383.22 151.13C385.126 149.958 387.357 149.372 389.914 149.372C392.471 149.372 394.702 149.958 396.608 151.13C398.514 152.302 399.994 153.947 401.047 156.066C402.101 158.185 402.627 160.659 402.627 163.488C402.627 166.305 402.101 168.767 401.047 170.874C399.994 172.981 398.514 174.621 396.608 175.793C394.702 176.964 392.471 177.55 389.914 177.55ZM389.932 173.094C391.589 173.094 392.962 172.656 394.051 171.78C395.14 170.904 395.945 169.738 396.466 168.282C396.999 166.826 397.265 165.222 397.265 163.47C397.265 161.73 396.999 160.132 396.466 158.676C395.945 157.208 395.14 156.031 394.051 155.143C392.962 154.255 391.589 153.811 389.932 153.811C388.263 153.811 386.878 154.255 385.777 155.143C384.688 156.031 383.877 157.208 383.345 158.676C382.824 160.132 382.563 161.73 382.563 163.47C382.563 165.222 382.824 166.826 383.345 168.282C383.877 169.738 384.688 170.904 385.777 171.78C386.878 172.656 388.263 173.094 389.932 173.094ZM413.862 160.807V177H408.553V149.727H413.649V154.166H413.987C414.614 152.722 415.596 151.562 416.934 150.686C418.283 149.81 419.982 149.372 422.03 149.372C423.888 149.372 425.516 149.763 426.913 150.544C428.309 151.313 429.393 152.462 430.162 153.989C430.931 155.516 431.316 157.404 431.316 159.653V177H426.007V160.292C426.007 158.315 425.492 156.77 424.462 155.658C423.433 154.533 422.018 153.971 420.219 153.971C418.988 153.971 417.893 154.237 416.934 154.77C415.987 155.303 415.235 156.084 414.679 157.114C414.134 158.132 413.862 159.363 413.862 160.807ZM149.995 238V201.636H155.304V215.148H155.624C155.931 214.58 156.375 213.923 156.955 213.178C157.535 212.432 158.34 211.781 159.37 211.224C160.4 210.656 161.761 210.372 163.454 210.372C165.656 210.372 167.621 210.929 169.349 212.041C171.077 213.154 172.432 214.758 173.415 216.853C174.409 218.948 174.906 221.469 174.906 224.417C174.906 227.364 174.415 229.892 173.433 231.999C172.45 234.094 171.101 235.71 169.384 236.846C167.668 237.97 165.709 238.533 163.507 238.533C161.85 238.533 160.495 238.254 159.441 237.698C158.399 237.142 157.583 236.491 156.991 235.745C156.399 234.999 155.943 234.336 155.624 233.756H155.18V238H149.995ZM155.197 224.364C155.197 226.281 155.476 227.962 156.032 229.406C156.588 230.85 157.393 231.981 158.447 232.798C159.5 233.603 160.79 234.005 162.317 234.005C163.904 234.005 165.229 233.585 166.295 232.744C167.36 231.892 168.165 230.738 168.71 229.282C169.266 227.826 169.544 226.187 169.544 224.364C169.544 222.564 169.272 220.949 168.727 219.516C168.195 218.084 167.39 216.954 166.312 216.125C165.247 215.296 163.915 214.882 162.317 214.882C160.779 214.882 159.477 215.279 158.411 216.072C157.358 216.865 156.559 217.972 156.014 219.392C155.47 220.812 155.197 222.47 155.197 224.364ZM192.622 238.55C189.935 238.55 187.621 237.976 185.68 236.828C183.75 235.668 182.259 234.04 181.205 231.945C180.163 229.838 179.643 227.37 179.643 224.541C179.643 221.748 180.163 219.286 181.205 217.155C182.259 215.024 183.726 213.361 185.608 212.165C187.502 210.97 189.716 210.372 192.249 210.372C193.788 210.372 195.279 210.627 196.724 211.136C198.168 211.645 199.464 212.444 200.612 213.533C201.76 214.622 202.666 216.036 203.329 217.776C203.992 219.504 204.323 221.606 204.323 224.08V225.962H182.643V221.984H199.121C199.121 220.588 198.836 219.351 198.268 218.273C197.7 217.184 196.901 216.326 195.871 215.699C194.853 215.071 193.658 214.758 192.285 214.758C190.793 214.758 189.491 215.125 188.378 215.859C187.278 216.581 186.425 217.528 185.822 218.7C185.23 219.86 184.934 221.12 184.934 222.482V225.589C184.934 227.412 185.253 228.962 185.893 230.241C186.544 231.519 187.449 232.496 188.609 233.17C189.769 233.833 191.125 234.165 192.675 234.165C193.681 234.165 194.599 234.023 195.427 233.739C196.256 233.443 196.972 233.005 197.576 232.425C198.18 231.845 198.641 231.129 198.961 230.276L203.986 231.182C203.583 232.661 202.861 233.958 201.819 235.07C200.79 236.171 199.493 237.029 197.931 237.645C196.38 238.249 194.611 238.55 192.622 238.55ZM222.944 210.727V214.989H208.047V210.727H222.944ZM212.042 204.193H217.351V229.992C217.351 231.022 217.505 231.797 217.813 232.318C218.121 232.827 218.517 233.176 219.002 233.366C219.5 233.543 220.038 233.632 220.618 233.632C221.044 233.632 221.417 233.603 221.737 233.543C222.056 233.484 222.305 233.437 222.483 233.401L223.441 237.787C223.134 237.905 222.696 238.024 222.127 238.142C221.559 238.272 220.849 238.343 219.997 238.355C218.6 238.379 217.298 238.13 216.091 237.609C214.883 237.089 213.907 236.284 213.161 235.195C212.415 234.106 212.042 232.738 212.042 231.093V204.193ZM234.73 238L226.704 210.727H232.191L237.535 230.756H237.801L243.164 210.727H248.65L253.977 230.667H254.243L259.552 210.727H265.039L257.031 238H251.615L246.075 218.309H245.667L240.127 238H234.73ZM281.001 238.55C278.314 238.55 276 237.976 274.058 236.828C272.129 235.668 270.637 234.04 269.584 231.945C268.542 229.838 268.021 227.37 268.021 224.541C268.021 221.748 268.542 219.286 269.584 217.155C270.637 215.024 272.105 213.361 273.987 212.165C275.881 210.97 278.095 210.372 280.628 210.372C282.167 210.372 283.658 210.627 285.102 211.136C286.547 211.645 287.843 212.444 288.991 213.533C290.139 214.622 291.045 216.036 291.708 217.776C292.37 219.504 292.702 221.606 292.702 224.08V225.962H271.022V221.984H287.499C287.499 220.588 287.215 219.351 286.647 218.273C286.079 217.184 285.28 216.326 284.25 215.699C283.232 215.071 282.037 214.758 280.664 214.758C279.172 214.758 277.87 215.125 276.757 215.859C275.656 216.581 274.804 217.528 274.2 218.7C273.609 219.86 273.313 221.12 273.313 222.482V225.589C273.313 227.412 273.632 228.962 274.271 230.241C274.923 231.519 275.828 232.496 276.988 233.17C278.148 233.833 279.503 234.165 281.054 234.165C282.06 234.165 282.978 234.023 283.806 233.739C284.635 233.443 285.351 233.005 285.955 232.425C286.558 231.845 287.02 231.129 287.34 230.276L292.365 231.182C291.962 232.661 291.24 233.958 290.198 235.07C289.169 236.171 287.872 237.029 286.31 237.645C284.759 238.249 282.99 238.55 281.001 238.55ZM310.347 238.55C307.66 238.55 305.345 237.976 303.404 236.828C301.475 235.668 299.983 234.04 298.93 231.945C297.888 229.838 297.367 227.37 297.367 224.541C297.367 221.748 297.888 219.286 298.93 217.155C299.983 215.024 301.451 213.361 303.333 212.165C305.227 210.97 307.441 210.372 309.974 210.372C311.513 210.372 313.004 210.627 314.448 211.136C315.892 211.645 317.188 212.444 318.337 213.533C319.485 214.622 320.39 216.036 321.053 217.776C321.716 219.504 322.048 221.606 322.048 224.08V225.962H300.368V221.984H316.845C316.845 220.588 316.561 219.351 315.993 218.273C315.425 217.184 314.626 216.326 313.596 215.699C312.578 215.071 311.382 214.758 310.009 214.758C308.518 214.758 307.216 215.125 306.103 215.859C305.002 216.581 304.15 217.528 303.546 218.7C302.954 219.86 302.658 221.12 302.658 222.482V225.589C302.658 227.412 302.978 228.962 303.617 230.241C304.268 231.519 305.174 232.496 306.334 233.17C307.494 233.833 308.849 234.165 310.4 234.165C311.406 234.165 312.323 234.023 313.152 233.739C313.981 233.443 314.697 233.005 315.3 232.425C315.904 231.845 316.366 231.129 316.685 230.276L321.71 231.182C321.308 232.661 320.586 233.958 319.544 235.07C318.514 236.171 317.218 237.029 315.656 237.645C314.105 238.249 312.335 238.55 310.347 238.55ZM333.247 221.807V238H327.938V210.727H333.034V215.166H333.371C333.999 213.722 334.981 212.562 336.319 211.686C337.668 210.81 339.367 210.372 341.415 210.372C343.273 210.372 344.901 210.763 346.297 211.544C347.694 212.313 348.777 213.462 349.547 214.989C350.316 216.516 350.701 218.404 350.701 220.653V238H345.392V221.292C345.392 219.315 344.877 217.77 343.847 216.658C342.817 215.533 341.403 214.971 339.604 214.971C338.372 214.971 337.278 215.237 336.319 215.77C335.372 216.303 334.62 217.084 334.064 218.114C333.519 219.132 333.247 220.363 333.247 221.807ZM374.658 201.636L384.778 231.253H385.187L395.308 201.636H401.238L388.152 238H381.813L368.727 201.636H374.658ZM406.063 238V210.727H411.372V238H406.063ZM408.744 206.519C407.821 206.519 407.028 206.211 406.365 205.596C405.714 204.969 405.388 204.223 405.388 203.359C405.388 202.483 405.714 201.737 406.365 201.121C407.028 200.494 407.821 200.18 408.744 200.18C409.667 200.18 410.455 200.494 411.106 201.121C411.769 201.737 412.1 202.483 412.1 203.359C412.1 204.223 411.769 204.969 411.106 205.596C410.455 206.211 409.667 206.519 408.744 206.519ZM438.951 217.386L434.139 218.238C433.938 217.622 433.618 217.036 433.18 216.48C432.754 215.924 432.174 215.468 431.44 215.113C430.706 214.758 429.789 214.58 428.688 214.58C427.185 214.58 425.93 214.918 424.924 215.592C423.918 216.255 423.415 217.113 423.415 218.167C423.415 219.078 423.752 219.812 424.427 220.369C425.102 220.925 426.191 221.381 427.694 221.736L432.026 222.73C434.536 223.31 436.406 224.204 437.637 225.411C438.868 226.619 439.484 228.187 439.484 230.116C439.484 231.75 439.01 233.206 438.063 234.484C437.128 235.751 435.82 236.745 434.139 237.467C432.47 238.189 430.535 238.55 428.333 238.55C425.279 238.55 422.787 237.899 420.858 236.597C418.929 235.283 417.745 233.419 417.307 231.004L422.438 230.223C422.758 231.561 423.415 232.573 424.409 233.259C425.403 233.934 426.7 234.271 428.298 234.271C430.038 234.271 431.429 233.91 432.47 233.188C433.512 232.454 434.033 231.561 434.033 230.507C434.033 229.655 433.713 228.939 433.074 228.359C432.446 227.779 431.482 227.341 430.18 227.045L425.563 226.033C423.018 225.453 421.136 224.529 419.917 223.263C418.71 221.996 418.106 220.392 418.106 218.451C418.106 216.841 418.556 215.433 419.455 214.225C420.355 213.018 421.598 212.077 423.184 211.402C424.77 210.715 426.587 210.372 428.635 210.372C431.582 210.372 433.902 211.011 435.595 212.29C437.288 213.556 438.406 215.255 438.951 217.386ZM445.321 238V210.727H450.417V215.166H450.754C451.322 213.663 452.251 212.491 453.542 211.651C454.832 210.798 456.377 210.372 458.176 210.372C459.999 210.372 461.526 210.798 462.757 211.651C464 212.503 464.917 213.675 465.509 215.166H465.793C466.444 213.71 467.48 212.55 468.9 211.686C470.321 210.81 472.014 210.372 473.979 210.372C476.452 210.372 478.471 211.147 480.033 212.698C481.608 214.249 482.395 216.587 482.395 219.712V238H477.086V220.209C477.086 218.362 476.583 217.025 475.577 216.196C474.57 215.367 473.369 214.953 471.972 214.953C470.244 214.953 468.9 215.486 467.942 216.551C466.983 217.605 466.503 218.96 466.503 220.617V238H461.212V219.871C461.212 218.392 460.751 217.202 459.827 216.303C458.904 215.403 457.702 214.953 456.223 214.953C455.217 214.953 454.287 215.219 453.435 215.752C452.595 216.273 451.914 217.001 451.393 217.936C450.884 218.871 450.63 219.954 450.63 221.185V238H445.321ZM157.506 299.604C155.777 299.604 154.215 299.284 152.818 298.645C151.421 297.994 150.315 297.053 149.498 295.822C148.693 294.591 148.29 293.081 148.29 291.294C148.29 289.755 148.586 288.489 149.178 287.494C149.77 286.5 150.569 285.713 151.575 285.133C152.581 284.553 153.706 284.115 154.949 283.819C156.192 283.523 157.458 283.298 158.749 283.144C160.382 282.955 161.708 282.801 162.726 282.683C163.744 282.552 164.484 282.345 164.945 282.061C165.407 281.777 165.638 281.315 165.638 280.676V280.552C165.638 279.001 165.2 277.8 164.324 276.947C163.46 276.095 162.17 275.669 160.453 275.669C158.666 275.669 157.257 276.066 156.227 276.859C155.209 277.64 154.505 278.51 154.114 279.469L149.125 278.332C149.717 276.675 150.581 275.338 151.717 274.32C152.866 273.29 154.185 272.544 155.677 272.082C157.168 271.609 158.737 271.372 160.382 271.372C161.471 271.372 162.625 271.502 163.844 271.763C165.076 272.011 166.224 272.473 167.289 273.148C168.366 273.822 169.248 274.787 169.935 276.042C170.621 277.285 170.964 278.901 170.964 280.889V299H165.78V295.271H165.567C165.223 295.958 164.709 296.633 164.022 297.295C163.335 297.958 162.454 298.509 161.376 298.947C160.299 299.385 159.009 299.604 157.506 299.604ZM158.66 295.342C160.128 295.342 161.382 295.052 162.424 294.472C163.478 293.892 164.277 293.135 164.821 292.2C165.377 291.253 165.656 290.241 165.656 289.163V285.648C165.466 285.837 165.099 286.015 164.555 286.18C164.022 286.334 163.412 286.47 162.726 286.589C162.039 286.695 161.371 286.796 160.719 286.891C160.068 286.973 159.524 287.045 159.086 287.104C158.056 287.234 157.115 287.453 156.263 287.761C155.422 288.068 154.748 288.512 154.239 289.092C153.741 289.661 153.493 290.418 153.493 291.365C153.493 292.679 153.978 293.673 154.949 294.348C155.92 295.011 157.156 295.342 158.66 295.342ZM183.345 282.807V299H178.036V271.727H183.132V276.166H183.469C184.096 274.722 185.079 273.562 186.416 272.686C187.766 271.81 189.464 271.372 191.512 271.372C193.371 271.372 194.998 271.763 196.395 272.544C197.792 273.313 198.875 274.462 199.644 275.989C200.414 277.516 200.798 279.404 200.798 281.653V299H195.49V282.292C195.49 280.315 194.975 278.77 193.945 277.658C192.915 276.533 191.5 275.971 189.701 275.971C188.47 275.971 187.375 276.237 186.416 276.77C185.469 277.303 184.718 278.084 184.161 279.114C183.617 280.132 183.345 281.363 183.345 282.807ZM218.128 299.533C215.926 299.533 213.961 298.97 212.233 297.846C210.517 296.71 209.167 295.094 208.185 292.999C207.214 290.892 206.729 288.364 206.729 285.417C206.729 282.469 207.22 279.948 208.203 277.853C209.197 275.758 210.558 274.154 212.286 273.041C214.015 271.929 215.974 271.372 218.164 271.372C219.856 271.372 221.218 271.656 222.247 272.224C223.289 272.781 224.094 273.432 224.662 274.178C225.242 274.923 225.692 275.58 226.012 276.148H226.331V262.636H231.64V299H226.455V294.756H226.012C225.692 295.336 225.23 295.999 224.627 296.745C224.035 297.491 223.218 298.142 222.176 298.698C221.135 299.254 219.785 299.533 218.128 299.533ZM219.3 295.005C220.827 295.005 222.117 294.603 223.171 293.798C224.236 292.981 225.041 291.85 225.585 290.406C226.142 288.962 226.42 287.281 226.42 285.364C226.42 283.47 226.148 281.812 225.603 280.392C225.059 278.972 224.26 277.865 223.206 277.072C222.153 276.279 220.851 275.882 219.3 275.882C217.702 275.882 216.37 276.296 215.305 277.125C214.24 277.954 213.435 279.084 212.89 280.516C212.357 281.949 212.091 283.564 212.091 285.364C212.091 287.187 212.363 288.826 212.908 290.282C213.452 291.738 214.257 292.892 215.323 293.744C216.4 294.585 217.726 295.005 219.3 295.005ZM283.078 274.462H277.539C277.325 273.278 276.929 272.236 276.349 271.337C275.769 270.437 275.059 269.674 274.218 269.046C273.378 268.419 272.437 267.945 271.395 267.626C270.365 267.306 269.27 267.146 268.11 267.146C266.015 267.146 264.139 267.673 262.482 268.727C260.836 269.78 259.534 271.325 258.575 273.361C257.628 275.397 257.155 277.883 257.155 280.818C257.155 283.777 257.628 286.275 258.575 288.311C259.534 290.347 260.842 291.886 262.499 292.928C264.157 293.969 266.021 294.49 268.093 294.49C269.241 294.49 270.33 294.336 271.36 294.028C272.401 293.709 273.342 293.241 274.183 292.626C275.023 292.01 275.733 291.259 276.313 290.371C276.905 289.471 277.314 288.441 277.539 287.281L283.078 287.299C282.782 289.086 282.208 290.732 281.356 292.235C280.516 293.727 279.432 295.017 278.107 296.106C276.793 297.183 275.289 298.018 273.597 298.609C271.904 299.201 270.057 299.497 268.057 299.497C264.908 299.497 262.103 298.751 259.641 297.26C257.179 295.757 255.237 293.608 253.817 290.815C252.408 288.021 251.704 284.689 251.704 280.818C251.704 276.936 252.414 273.603 253.835 270.822C255.255 268.028 257.196 265.886 259.659 264.394C262.121 262.891 264.92 262.139 268.057 262.139C269.986 262.139 271.786 262.417 273.455 262.974C275.136 263.518 276.645 264.323 277.982 265.388C279.32 266.442 280.427 267.732 281.303 269.259C282.179 270.774 282.771 272.509 283.078 274.462Z" fill="#CAB2FA"/>
<path d="M505 222C503.895 222 503 222.895 503 224C503 225.105 503.895 226 505 226V222ZM778 224L758 212.453V235.547L778 224ZM505 226H760V222H505V226Z" fill="#CAB2FA"/>
<path d="M269 320C269 318.895 268.105 318 267 318C265.895 318 265 318.895 265 320H269ZM267 511H265V513H267V511ZM544 511L524 499.453V522.547L544 511ZM265 320V511H269V320H265ZM267 513H526V509H267V513Z" fill="#CAB2FA"/>
<rect x="1158" y="718" width="465" height="73" rx="5" stroke="#B2FACA" stroke-width="4"/>
</svg>
